# Blender 4.4.3
# www.blender.org
mtllib left_arm_base_link.mtl
o left_arm_base_link
v 0.046137 0.059708 -0.000500
v 0.046137 0.059708 0.000000
v 0.050933 0.058036 0.000000
v 0.046137 0.059708 -0.011000
v 0.058035 0.050933 0.000000
v 0.059708 0.046137 0.000000
v 0.059708 0.046137 -0.000500
v 0.050933 0.058036 -0.011000
v 0.055021 0.055021 0.000000
v 0.055021 0.055021 -0.011000
v 0.058035 0.050933 -0.011000
v 0.059708 0.046137 -0.011000
v 0.059708 -0.046137 -0.000500
v 0.059708 -0.046137 0.000000
v 0.058036 -0.050933 0.000000
v 0.058036 -0.050933 -0.011000
v 0.059708 -0.046137 -0.011000
v 0.050933 -0.058035 0.000000
v 0.046137 -0.059708 0.000000
v 0.046137 -0.059708 -0.000500
v 0.055021 -0.055021 0.000000
v 0.055021 -0.055021 -0.011000
v 0.050933 -0.058035 -0.011000
v 0.046138 -0.059708 -0.011000
v 0.027785 -0.062453 -0.011000
v 0.027785 -0.062453 0.000000
v 0.009279 -0.063830 -0.000000
v -0.009278 -0.063830 -0.011000
v 0.000000 -0.064002 -0.011000
v 0.009279 -0.063830 -0.011000
v -0.027784 -0.062454 -0.000000
v -0.046137 -0.059708 -0.000000
v -0.046137 -0.059708 -0.000500
v -0.009278 -0.063830 -0.000000
v -0.027784 -0.062453 -0.011000
v -0.046137 -0.059708 -0.011000
v -0.050622 -0.058195 -0.000000
v -0.054516 -0.055505 -0.000000
v -0.057518 -0.051845 -0.000000
v -0.057518 -0.051845 -0.000500
v -0.050622 -0.058195 -0.011000
v -0.054516 -0.055505 -0.011000
v -0.057518 -0.051845 -0.011000
v -0.059150 -0.048094 -0.000000
v -0.059150 -0.048093 -0.011000
v -0.059708 -0.044041 -0.000000
v -0.059708 -0.044041 -0.000500
v -0.059708 -0.044041 -0.011000
v -0.059708 0.044040 -0.000500
v -0.059708 0.044040 -0.000000
v -0.059150 0.048093 -0.000000
v -0.059708 0.044040 -0.011000
v -0.057518 0.051845 -0.000000
v -0.057518 0.051845 -0.000500
v -0.059150 0.048093 -0.011000
v -0.057518 0.051845 -0.011000
v -0.054517 0.055505 -0.000000
v -0.054517 0.055505 -0.011000
v -0.050623 0.058195 -0.000000
v -0.046137 0.059708 -0.000000
v -0.046137 0.059708 -0.000500
v -0.050622 0.058195 -0.011000
v -0.046137 0.059708 -0.011000
v -0.027785 0.062453 -0.011000
v -0.027785 0.062453 -0.000000
v -0.009279 0.063830 0.000000
v 0.009278 0.063830 -0.011000
v -0.000000 0.064002 -0.011000
v -0.009279 0.063830 -0.011000
v 0.027784 0.062453 0.000000
v 0.009278 0.063830 0.000000
v 0.027784 0.062453 -0.011000
v -0.025000 -0.000000 -0.000000
v -0.025000 0.000000 -0.073500
v -0.024852 0.002713 -0.000000
v -0.024852 0.002713 -0.073500
v -0.023267 0.009147 -0.000000
v -0.023266 0.009147 -0.073500
v -0.020046 0.014938 -0.000000
v -0.020046 0.014938 -0.073500
v -0.015418 0.019680 -0.000000
v -0.015418 0.019680 -0.073500
v -0.009706 0.023039 -0.000000
v -0.009706 0.023039 -0.073500
v -0.003313 0.024779 0.000000
v -0.003313 0.024780 -0.073500
v 0.003313 0.024779 0.000000
v 0.003313 0.024780 -0.073500
v 0.009706 0.023039 0.000000
v 0.009707 0.023039 -0.073500
v 0.015418 0.019680 0.000000
v 0.015418 0.019680 -0.073500
v 0.020046 0.014938 0.000000
v 0.020047 0.014938 -0.073500
v 0.023267 0.009147 0.000000
v 0.023267 0.009147 -0.073500
v 0.024852 0.002713 0.000000
v 0.024853 0.002713 -0.073500
v 0.025000 0.000000 0.000000
v 0.025000 0.000000 -0.073500
v 0.024852 -0.002713 0.000000
v 0.024853 -0.002713 -0.073500
v 0.023267 -0.009147 0.000000
v 0.023267 -0.009147 -0.073500
v 0.020046 -0.014938 0.000000
v 0.020047 -0.014938 -0.073500
v 0.015418 -0.019680 0.000000
v 0.015418 -0.019679 -0.073500
v 0.009706 -0.023039 0.000000
v 0.009707 -0.023039 -0.073500
v 0.003313 -0.024780 -0.000000
v 0.003313 -0.024779 -0.073500
v -0.003313 -0.024780 -0.000000
v -0.003313 -0.024779 -0.073500
v -0.009706 -0.023039 -0.000000
v -0.009706 -0.023039 -0.073500
v -0.015418 -0.019680 -0.000000
v -0.015418 -0.019680 -0.073500
v -0.020046 -0.014938 -0.000000
v -0.020046 -0.014938 -0.073500
v -0.023267 -0.009147 -0.000000
v -0.023266 -0.009147 -0.073500
v -0.024852 -0.002713 -0.000000
v -0.024852 -0.002713 -0.073500
v -0.028000 0.051961 -0.000200
v -0.027800 0.051961 -0.000000
v -0.028112 0.052622 -0.000200
v -0.027924 0.052688 -0.000000
v -0.028651 0.053438 -0.000200
v -0.028516 0.053585 -0.000000
v -0.029000 0.053693 -0.000200
v -0.028900 0.053867 -0.000000
v -0.029511 0.053901 -0.000200
v -0.029463 0.054095 -0.000000
v -0.030489 0.053901 -0.000200
v -0.030538 0.054095 -0.000000
v -0.031349 0.053438 -0.000200
v -0.031484 0.053585 -0.000000
v -0.031888 0.052622 -0.000200
v -0.032077 0.052688 -0.000000
v -0.032000 0.051961 -0.000200
v -0.032200 0.051961 -0.000000
v -0.031888 0.051301 -0.000200
v -0.032077 0.051235 -0.000000
v -0.031349 0.050485 -0.000200
v -0.031484 0.050338 -0.000000
v -0.030489 0.050022 -0.000200
v -0.030538 0.049828 -0.000000
v -0.029511 0.050022 -0.000200
v -0.029463 0.049828 -0.000000
v -0.028651 0.050485 -0.000200
v -0.028516 0.050338 -0.000000
v -0.028112 0.051301 -0.000200
v -0.027924 0.051235 -0.000000
v 0.019666 -0.054032 -0.011000
v 0.009985 -0.056626 -0.011000
v 0.000000 -0.057500 -0.011000
v -0.009985 -0.056626 -0.011000
v -0.019666 -0.054032 -0.011000
v -0.028750 -0.049797 -0.011000
v 0.028750 -0.049796 -0.011000
v 0.045021 -0.052875 -0.011000
v 0.047125 -0.054980 -0.011000
v 0.054032 -0.019666 -0.011000
v 0.051280 -0.044394 -0.011000
v 0.049797 -0.028750 -0.011000
v 0.048721 -0.044394 -0.011000
v 0.044048 -0.036960 -0.011000
v 0.046415 -0.045504 -0.011000
v 0.036960 -0.044047 -0.011000
v 0.044820 -0.047505 -0.011000
v 0.044250 -0.050000 -0.011000
v 0.050000 -0.055750 -0.011000
v 0.052875 -0.054980 -0.011000
v 0.054980 -0.052875 -0.011000
v 0.055750 -0.050000 -0.011000
v 0.055181 -0.047505 -0.011000
v 0.062454 -0.027784 -0.011000
v 0.053585 -0.045504 -0.011000
v 0.063830 -0.009278 -0.011000
v 0.064002 0.000000 -0.011000
v 0.050302 0.027855 -0.011000
v 0.050000 0.044250 -0.011000
v 0.052875 0.045020 -0.011000
v 0.054263 0.019021 -0.011000
v 0.062453 0.027785 -0.011000
v 0.056685 0.009647 -0.011000
v 0.063830 0.009279 -0.011000
v 0.057500 0.000000 -0.011000
v 0.056627 -0.009985 -0.011000
v 0.054980 0.047125 -0.011000
v 0.055750 0.050000 -0.011000
v 0.055181 0.052495 -0.011000
v 0.053585 0.054496 -0.011000
v 0.051279 0.055606 -0.011000
v 0.048720 0.055606 -0.011000
v 0.046415 0.054496 -0.011000
v 0.044819 0.052495 -0.011000
v 0.047125 0.045020 -0.011000
v 0.044916 0.035900 -0.011000
v 0.045020 0.047125 -0.011000
v 0.038495 0.042713 -0.011000
v 0.044250 0.050000 -0.011000
v 0.031053 0.048394 -0.011000
v 0.022788 0.052792 -0.011000
v -0.056685 0.009647 -0.011000
v -0.057500 -0.000000 -0.011000
v -0.059708 -0.000000 -0.011000
v -0.056626 -0.009985 -0.011000
v -0.051279 -0.044394 -0.011000
v -0.054032 -0.019666 -0.011000
v -0.048720 -0.044394 -0.011000
v -0.049796 -0.028750 -0.011000
v -0.046415 -0.045505 -0.011000
v -0.044047 -0.036960 -0.011000
v -0.044819 -0.047505 -0.011000
v -0.036960 -0.044048 -0.011000
v -0.044250 -0.050000 -0.011000
v -0.045020 -0.052875 -0.011000
v -0.047125 -0.054980 -0.011000
v -0.050000 -0.055750 -0.011000
v -0.052875 -0.054980 -0.011000
v -0.054979 -0.052875 -0.011000
v -0.055750 -0.050000 -0.011000
v -0.055180 -0.047505 -0.011000
v -0.053585 -0.045505 -0.011000
v -0.054263 0.019021 -0.011000
v -0.052875 0.045020 -0.011000
v -0.050302 0.027855 -0.011000
v -0.050000 0.044250 -0.011000
v -0.044916 0.035900 -0.011000
v -0.047125 0.045020 -0.011000
v -0.038495 0.042713 -0.011000
v -0.045020 0.047125 -0.011000
v -0.031053 0.048394 -0.011000
v -0.013919 0.055790 -0.011000
v -0.022788 0.052792 -0.011000
v -0.054980 0.047125 -0.011000
v -0.055750 0.050000 -0.011000
v -0.055181 0.052495 -0.011000
v -0.053585 0.054495 -0.011000
v -0.051280 0.055606 -0.011000
v -0.048721 0.055606 -0.011000
v -0.046415 0.054495 -0.011000
v -0.044819 0.052495 -0.011000
v -0.044250 0.050000 -0.011000
v 0.013919 0.055790 -0.011000
v 0.004681 0.057309 -0.011000
v -0.000000 0.057500 -0.011000
v -0.004681 0.057309 -0.011000
v -0.050000 -0.044750 -0.004000
v -0.050770 -0.046946 -0.004000
v -0.052625 -0.045453 -0.004000
v -0.052125 -0.047675 -0.004000
v -0.054547 -0.047375 -0.004000
v -0.052973 -0.048960 -0.004000
v -0.055250 -0.050000 -0.004000
v -0.053150 -0.050000 -0.004000
v -0.054547 -0.052625 -0.004000
v -0.052973 -0.051041 -0.004000
v -0.052625 -0.054547 -0.004000
v -0.052125 -0.052325 -0.004000
v -0.050000 -0.055250 -0.004000
v -0.050770 -0.053055 -0.004000
v -0.049230 -0.053055 -0.004000
v -0.047375 -0.054547 -0.004000
v -0.047875 -0.052325 -0.004000
v -0.045453 -0.052625 -0.004000
v -0.047027 -0.051040 -0.004000
v -0.044750 -0.050000 -0.004000
v -0.046850 -0.050000 -0.004000
v -0.045453 -0.047375 -0.004000
v -0.047027 -0.048960 -0.004000
v -0.047375 -0.045453 -0.004000
v -0.047875 -0.047675 -0.004000
v -0.049230 -0.046946 -0.004000
v 0.050000 -0.044750 -0.004000
v 0.049230 -0.046945 -0.004000
v 0.047375 -0.045453 -0.004000
v 0.047875 -0.047675 -0.004000
v 0.045453 -0.047375 -0.004000
v 0.047027 -0.048960 -0.004000
v 0.044750 -0.050000 -0.004000
v 0.046850 -0.050000 -0.004000
v 0.045453 -0.052625 -0.004000
v 0.047027 -0.051040 -0.004000
v 0.047375 -0.054547 -0.004000
v 0.047875 -0.052325 -0.004000
v 0.050000 -0.055250 -0.004000
v 0.049230 -0.053054 -0.004000
v 0.050770 -0.053054 -0.004000
v 0.052625 -0.054547 -0.004000
v 0.052125 -0.052325 -0.004000
v 0.054547 -0.052625 -0.004000
v 0.052973 -0.051040 -0.004000
v 0.055250 -0.050000 -0.004000
v 0.053150 -0.050000 -0.004000
v 0.054547 -0.047375 -0.004000
v 0.052973 -0.048960 -0.004000
v 0.052625 -0.045453 -0.004000
v 0.052125 -0.047675 -0.004000
v 0.050770 -0.046945 -0.004000
v -0.050000 0.055250 -0.004000
v -0.050770 0.053054 -0.004000
v -0.052625 0.054547 -0.004000
v -0.052125 0.052325 -0.004000
v -0.054547 0.052625 -0.004000
v -0.052973 0.051040 -0.004000
v -0.055250 0.050000 -0.004000
v -0.053150 0.050000 -0.004000
v -0.054547 0.047375 -0.004000
v -0.052973 0.048959 -0.004000
v -0.052625 0.045453 -0.004000
v -0.052125 0.047675 -0.004000
v -0.050000 0.044750 -0.004000
v -0.050770 0.046945 -0.004000
v -0.049230 0.046945 -0.004000
v -0.047375 0.045453 -0.004000
v -0.047875 0.047675 -0.004000
v -0.045453 0.047375 -0.004000
v -0.047027 0.048960 -0.004000
v -0.044750 0.050000 -0.004000
v -0.046850 0.050000 -0.004000
v -0.045453 0.052625 -0.004000
v -0.047027 0.051040 -0.004000
v -0.047375 0.054547 -0.004000
v -0.047875 0.052325 -0.004000
v -0.049230 0.053054 -0.004000
v 0.055250 0.050000 -0.010500
v 0.054730 0.052278 -0.010500
v 0.054547 0.052625 -0.010500
v 0.053273 0.054105 -0.010500
v 0.052625 0.054547 -0.010500
v 0.051168 0.055118 -0.010500
v 0.050000 0.055250 -0.010500
v 0.048832 0.055118 -0.010500
v 0.047375 0.054547 -0.010500
v 0.046727 0.054105 -0.010500
v 0.044750 0.050000 -0.010500
v 0.045270 0.052278 -0.010500
v 0.045453 0.052625 -0.010500
v -0.049796 -0.028750 -0.073500
v -0.054032 -0.019666 -0.073500
v -0.056626 -0.009985 -0.073500
v -0.057500 -0.000000 -0.073500
v -0.056685 0.009647 -0.073500
v -0.028750 -0.049796 -0.073500
v -0.036960 -0.044048 -0.073500
v -0.044047 -0.036960 -0.073500
v 0.000000 -0.057500 -0.073500
v -0.009984 -0.056626 -0.073500
v -0.019666 -0.054032 -0.073500
v 0.028750 -0.049796 -0.073500
v 0.019667 -0.054032 -0.073500
v 0.009985 -0.056626 -0.073500
v 0.049797 -0.028750 -0.073500
v 0.044048 -0.036960 -0.073500
v 0.036961 -0.044047 -0.073500
v -0.044916 0.035900 -0.073500
v -0.050302 0.027855 -0.073500
v -0.054263 0.019021 -0.073500
v 0.044916 0.035900 -0.073500
v 0.050303 0.027855 -0.073500
v 0.054263 0.019021 -0.073500
v 0.056685 0.009647 -0.073500
v 0.057500 0.000000 -0.073500
v 0.056627 -0.009985 -0.073500
v 0.054033 -0.019666 -0.073500
v -0.032000 0.051961 -0.003200
v -0.031888 0.052622 -0.003200
v -0.031349 0.053438 -0.003200
v -0.030489 0.053901 -0.003200
v -0.029511 0.053901 -0.003200
v -0.028651 0.053438 -0.003200
v -0.028000 0.051961 -0.003200
v -0.028112 0.052622 -0.003200
v -0.028112 0.052622 -0.000200
v -0.028651 0.053438 -0.000200
v -0.028112 0.051301 -0.003200
v -0.028651 0.050485 -0.003200
v -0.029511 0.050022 -0.003200
v -0.030489 0.050022 -0.003200
v -0.031349 0.050485 -0.003200
v -0.031888 0.051301 -0.003200
v 0.038495 0.042713 -0.073500
v 0.031053 0.048394 -0.073500
v 0.022788 0.052792 -0.073500
v 0.013919 0.055790 -0.073500
v 0.004681 0.057309 -0.073500
v -0.038494 0.042713 -0.073500
v -0.044916 0.035900 -0.012000
v -0.004681 0.057309 -0.073500
v -0.013919 0.055790 -0.073500
v -0.022788 0.052792 -0.073500
v -0.031053 0.048394 -0.073500
v -0.044750 0.050000 -0.010500
v -0.045453 0.047375 -0.010500
v -0.045020 0.047125 -0.011000
v -0.047375 0.045453 -0.010500
v -0.050000 0.044750 -0.010500
v -0.052625 0.045453 -0.010500
v -0.054547 0.047375 -0.010500
v -0.055250 0.050000 -0.010500
v 0.055250 -0.050000 -0.010500
v 0.054547 -0.052625 -0.010500
v 0.052625 -0.054547 -0.010500
v 0.050000 -0.055250 -0.010500
v 0.047375 -0.054547 -0.010500
v 0.045454 -0.052625 -0.010500
v 0.044750 -0.050000 -0.010500
v -0.044750 -0.050000 -0.010500
v -0.045453 -0.052625 -0.010500
v -0.045020 -0.052875 -0.011000
v -0.047375 -0.054547 -0.010500
v -0.050000 -0.055250 -0.010500
v -0.052625 -0.054547 -0.010500
v -0.054546 -0.052625 -0.010500
v -0.055250 -0.050000 -0.010500
v -0.045270 -0.047722 -0.010500
v -0.045453 -0.047375 -0.010500
v -0.046727 -0.045895 -0.010500
v -0.047375 -0.045453 -0.010500
v -0.048832 -0.044882 -0.010500
v -0.050000 -0.044750 -0.010500
v -0.051168 -0.044882 -0.010500
v -0.052625 -0.045453 -0.010500
v -0.053273 -0.045895 -0.010500
v -0.054546 -0.047375 -0.010500
v -0.054730 -0.047722 -0.010500
v 0.054730 -0.047722 -0.010500
v 0.054547 -0.047375 -0.010500
v 0.053273 -0.045895 -0.010500
v 0.052625 -0.045453 -0.010500
v 0.051168 -0.044882 -0.010500
v 0.050000 -0.044750 -0.010500
v 0.048832 -0.044882 -0.010500
v 0.047375 -0.045453 -0.010500
v 0.046727 -0.045895 -0.010500
v 0.045454 -0.047375 -0.010500
v 0.045270 -0.047722 -0.010500
v -0.045270 0.052278 -0.010500
v -0.045453 0.052625 -0.010500
v -0.046727 0.054105 -0.010500
v -0.047375 0.054547 -0.010500
v -0.048832 0.055118 -0.010500
v -0.050000 0.055250 -0.010500
v -0.051168 0.055118 -0.010500
v -0.052625 0.054547 -0.010500
v -0.053273 0.054105 -0.010500
v -0.054547 0.052625 -0.010500
v -0.054730 0.052278 -0.010500
v 0.054547 0.047375 -0.010500
v 0.052625 0.045453 -0.010500
v 0.050000 0.044750 -0.010500
v 0.047375 0.045453 -0.010500
v 0.045453 0.047375 -0.010500
v 0.055250 0.050000 -0.004000
v 0.054547 0.052625 -0.004000
v 0.052625 0.054547 -0.004000
v 0.050000 0.055250 -0.004000
v 0.047375 0.054547 -0.004000
v 0.045453 0.052625 -0.004000
v 0.044750 0.050000 -0.004000
v 0.045453 0.047375 -0.004000
v 0.047375 0.045453 -0.004000
v 0.050000 0.044750 -0.004000
v 0.052625 0.045453 -0.004000
v 0.054547 0.047375 -0.004000
v 0.049230 0.053055 -0.004000
v 0.047875 0.052325 -0.004000
v 0.047027 0.051040 -0.004000
v 0.046850 0.050000 -0.004000
v 0.047027 0.048960 -0.004000
v 0.047875 0.047675 -0.004000
v 0.049230 0.046946 -0.004000
v 0.050770 0.046946 -0.004000
v 0.052125 0.047675 -0.004000
v 0.052973 0.048960 -0.004000
v 0.053150 0.050000 -0.004000
v 0.052973 0.051040 -0.004000
v 0.052125 0.052325 -0.004000
v 0.050770 0.053055 -0.004000
v -0.046850 0.050000 -0.000000
v -0.047027 0.051040 -0.000000
v -0.047875 0.052325 -0.000000
v -0.049230 0.053054 -0.000000
v -0.050770 0.053054 -0.000000
v -0.052125 0.052325 -0.000000
v -0.052973 0.051040 -0.000000
v -0.053150 0.050000 -0.000000
v -0.052973 0.048959 -0.000000
v -0.052125 0.047675 -0.000000
v -0.050770 0.046945 -0.000000
v -0.049230 0.046945 -0.000000
v -0.047875 0.047675 -0.000000
v -0.047027 0.048960 -0.000000
v 0.046850 -0.050000 0.000000
v 0.047027 -0.051040 0.000000
v 0.047875 -0.052325 0.000000
v 0.049230 -0.053054 0.000000
v 0.050770 -0.053054 0.000000
v 0.052125 -0.052325 0.000000
v 0.052973 -0.051040 0.000000
v 0.053150 -0.050000 0.000000
v 0.052973 -0.048960 0.000000
v 0.052125 -0.047675 0.000000
v 0.050770 -0.046945 0.000000
v 0.049230 -0.046945 0.000000
v 0.047875 -0.047675 0.000000
v 0.047027 -0.048960 0.000000
v -0.046850 -0.050000 -0.000000
v -0.047027 -0.048960 -0.000000
v -0.047875 -0.047675 -0.000000
v -0.049230 -0.046946 -0.000000
v -0.050770 -0.046946 -0.000000
v -0.052125 -0.047675 -0.000000
v -0.052973 -0.048960 -0.000000
v -0.053150 -0.050000 -0.000000
v -0.052973 -0.051041 -0.000000
v -0.052125 -0.052325 -0.000000
v -0.050770 -0.053055 -0.000000
v -0.049230 -0.053055 -0.000000
v -0.047875 -0.052325 -0.000000
v -0.047027 -0.051040 -0.000000
v 0.046850 0.050000 0.000000
v 0.047027 0.048960 0.000000
v 0.047875 0.047675 0.000000
v 0.049230 0.046946 0.000000
v 0.050770 0.046946 0.000000
v 0.052125 0.047675 0.000000
v 0.052973 0.048960 0.000000
v 0.053150 0.050000 0.000000
v 0.052973 0.051040 0.000000
v 0.052125 0.052325 0.000000
v 0.050770 0.053055 0.000000
v 0.049230 0.053055 0.000000
v 0.047875 0.052325 0.000000
v 0.047027 0.051040 0.000000
v -0.059708 0.035925 -0.000000
v -0.059708 -0.035925 -0.000000
v 0.062453 0.027785 0.000000
v 0.063830 0.009279 0.000000
v 0.064002 0.000000 0.000000
v 0.062453 -0.027784 0.000000
v 0.063830 -0.009278 0.000000
v -0.056429 0.035925 -0.000000
v -0.026400 0.053656 -0.000000
v -0.056429 -0.048306 -0.000000
v 0.029463 -0.054095 0.000000
v 0.028516 -0.053585 0.000000
v 0.026400 -0.053656 0.000000
v 0.039525 0.035925 0.000000
v 0.039525 0.053656 0.000000
v 0.039525 -0.035925 0.000000
v 0.039525 -0.048306 0.000000
v 0.039525 -0.053656 0.000000
v -0.026400 -0.053656 -0.000000
v -0.039525 -0.053656 -0.000000
v -0.039525 -0.048306 -0.000000
v -0.039525 0.053656 -0.000000
v -0.039525 0.035925 -0.000000
v -0.056429 -0.035925 -0.000000
v -0.039525 -0.035925 -0.000000
v 0.032200 -0.051961 0.000000
v 0.032077 -0.052688 0.000000
v 0.031484 -0.053585 0.000000
v 0.030538 -0.054095 0.000000
v 0.028516 -0.050338 0.000000
v 0.029463 -0.049828 0.000000
v 0.026400 -0.048306 0.000000
v 0.030538 -0.049828 0.000000
v 0.032077 -0.051235 0.000000
v 0.027924 -0.052688 0.000000
v 0.027800 -0.051961 0.000000
v 0.027924 -0.051235 0.000000
v 0.031100 -0.050056 0.000000
v 0.031484 -0.050338 0.000000
v -0.026400 0.035925 -0.000000
v 0.026400 -0.035925 0.000000
v -0.026400 -0.035925 -0.000000
v 0.026400 0.035925 0.000000
v 0.026400 0.053656 0.000000
v -0.026400 -0.048306 -0.000000
v 0.032000 -0.051961 -0.000200
v 0.031888 -0.051301 -0.000200
v 0.031349 -0.050485 -0.000200
v 0.031000 -0.050229 -0.000200
v 0.030489 -0.050022 -0.000200
v 0.029511 -0.050022 -0.000200
v 0.028651 -0.050485 -0.000200
v 0.028112 -0.051301 -0.000200
v 0.028000 -0.051961 -0.000200
v 0.028112 -0.052622 -0.000200
v 0.028651 -0.053438 -0.000200
v 0.029511 -0.053901 -0.000200
v 0.030489 -0.053901 -0.000200
v 0.031349 -0.053438 -0.000200
v 0.031888 -0.052622 -0.000200
v 0.028000 -0.051961 -0.003200
v 0.028112 -0.051301 -0.003200
v 0.028651 -0.050485 -0.003200
v 0.029511 -0.050022 -0.003200
v 0.030489 -0.050022 -0.003200
v 0.031349 -0.050485 -0.003200
v 0.032000 -0.051961 -0.003200
v 0.031888 -0.051301 -0.003200
v 0.031888 -0.051301 -0.000200
v 0.031349 -0.050485 -0.000200
v 0.031888 -0.052622 -0.003200
v 0.031349 -0.053438 -0.003200
v 0.030489 -0.053901 -0.003200
v 0.029511 -0.053901 -0.003200
v 0.028651 -0.053438 -0.003200
v 0.028112 -0.052622 -0.003200
vn 0.3293 0.9442 -0.0000
vn 0.9442 0.3293 -0.0000
vn 0.5935 0.8048 -0.0000
vn 0.8048 0.5935 -0.0000
vn 0.9442 -0.3293 -0.0000
vn 0.3293 -0.9442 -0.0000
vn 0.8048 -0.5935 -0.0000
vn 0.5935 -0.8048 -0.0000
vn 0.0742 -0.9972 -0.0000
vn 0.1479 -0.9890 -0.0000
vn -0.0185 -0.9993 0.0313
vn 0.0186 -0.9998 -0.0000
vn -0.1479 -0.9890 -0.0000
vn -0.0000 -1.0000 -0.0000
vn -0.0742 -0.9972 -0.0000
vn -0.3196 -0.9476 -0.0000
vn -0.7733 -0.6341 -0.0000
vn -0.5684 -0.8227 -0.0000
vn -0.7732 -0.6341 -0.0000
vn -0.9170 -0.3990 -0.0000
vn -0.9907 -0.1364 -0.0000
vn -0.9907 0.1364 -0.0000
vn -0.9170 0.3990 -0.0000
vn -0.7733 0.6341 -0.0000
vn -0.3196 0.9476 -0.0000
vn -0.5685 0.8227 -0.0000
vn -0.5684 0.8227 -0.0000
vn -0.0742 0.9972 -0.0000
vn -0.1479 0.9890 -0.0000
vn 0.0186 0.9993 0.0313
vn -0.0186 0.9998 -0.0000
vn 0.1479 0.9890 -0.0000
vn -0.0000 1.0000 -0.0000
vn 0.0742 0.9972 -0.0000
vn 0.9985 -0.0543 -0.0000
vn 0.9709 -0.2393 -0.0000
vn 0.8740 -0.4860 -0.0000
vn 0.7156 -0.6985 -0.0000
vn 0.5070 -0.8620 -0.0000
vn 0.2627 -0.9649 -0.0000
vn -0.2627 -0.9649 -0.0000
vn -0.5070 -0.8620 -0.0000
vn -0.7156 -0.6985 -0.0000
vn -0.8740 -0.4860 -0.0000
vn -0.9709 -0.2393 -0.0000
vn -0.9985 -0.0543 -0.0000
vn -0.9985 0.0543 -0.0000
vn -0.9709 0.2393 -0.0000
vn -0.8740 0.4860 -0.0000
vn -0.7156 0.6985 -0.0000
vn -0.5070 0.8620 -0.0000
vn -0.2627 0.9649 -0.0000
vn 0.2627 0.9649 -0.0000
vn 0.5070 0.8620 -0.0000
vn 0.7156 0.6985 -0.0000
vn 0.8740 0.4860 -0.0000
vn 0.9709 0.2393 -0.0000
vn 0.9985 0.0543 -0.0000
vn -0.7020 -0.1193 0.7021
vn -0.7021 -0.1193 0.7021
vn -0.5992 -0.3955 0.6961
vn -0.5991 -0.3955 0.6961
vn -0.4190 -0.5722 0.7050
vn -0.2670 -0.6584 0.7037
vn -0.0000 -0.7179 0.6961
vn 0.3402 -0.6322 0.6961
vn 0.3402 -0.6322 0.6962
vn 0.5991 -0.3955 0.6962
vn 0.5991 -0.3955 0.6961
vn 0.7020 -0.1193 0.7021
vn 0.7021 -0.1193 0.7021
vn 0.7021 0.1193 0.7021
vn 0.7020 0.1193 0.7021
vn 0.5991 0.3955 0.6961
vn 0.5991 0.3955 0.6962
vn 0.3402 0.6322 0.6962
vn 0.3402 0.6322 0.6961
vn -0.0000 0.7179 0.6961
vn -0.3402 0.6322 0.6961
vn -0.3402 0.6322 0.6962
vn -0.5991 0.3955 0.6961
vn -0.7021 0.1193 0.7021
vn -0.0000 -0.0000 -1.0000
vn -0.6981 -0.1593 -0.6981
vn -0.6254 -0.3305 -0.7069
vn -0.6019 -0.4800 -0.6382
vn -0.5407 -0.4653 -0.7009
vn -0.3989 -0.5851 -0.7061
vn -0.3486 -0.7239 -0.5954
vn -0.2598 -0.6619 -0.7031
vn -0.0794 -0.7049 -0.7049
vn -0.0000 -0.8147 -0.5798
vn 0.0794 -0.7049 -0.7049
vn 0.3107 -0.6451 -0.6981
vn 0.3124 -0.7960 -0.5185
vn 0.3989 -0.5851 -0.7061
vn 0.5598 -0.4464 -0.6981
vn 0.6981 -0.1593 -0.6981
vn 0.6254 -0.3305 -0.7069
vn 0.5944 -0.5115 -0.6205
vn 0.9859 -0.1675 -0.0000
vn 0.8346 -0.5509 -0.0000
vn 0.4739 -0.8806 -0.0000
vn -0.3758 -0.9267 -0.0000
vn -0.4738 -0.8804 0.0199
vn -0.9859 -0.1675 -0.0000
vn -0.8346 -0.5509 -0.0000
vn -0.5908 -0.8068 -0.0000
vn -0.9859 0.1675 -0.0000
vn -0.8346 0.5509 -0.0000
vn -0.4739 0.8806 -0.0000
vn 0.4739 0.8806 -0.0000
vn 0.8346 0.5509 -0.0000
vn 0.9859 0.1675 -0.0000
vn 0.7277 0.6859 -0.0000
vn 0.6068 0.7949 -0.0000
vn 0.4697 0.8828 -0.0000
vn 0.3203 0.9473 -0.0000
vn 0.1623 0.9867 -0.0000
vn -0.7277 0.6859 -0.0000
vn 0.0407 0.9992 -0.0000
vn -0.0000 1.0000 -0.0031
vn -0.0407 0.9992 -0.0000
vn -0.1623 0.9867 -0.0000
vn -0.3203 0.9473 -0.0000
vn -0.4697 0.8828 -0.0000
vn -0.6068 0.7949 -0.0000
vn 0.9964 0.0842 -0.0000
vn 0.9682 0.2502 -0.0000
vn 0.9125 0.4091 -0.0000
vn 0.8309 0.5564 -0.0000
vn -0.9962 -0.0872 -0.0000
vn -0.9659 -0.2588 -0.0000
vn -0.9063 -0.4226 -0.0000
vn -0.8192 -0.5736 -0.0000
vn -0.7071 -0.7071 -0.0000
vn -0.5736 -0.8192 -0.0000
vn -0.4226 -0.9063 -0.0000
vn -0.2588 -0.9659 -0.0000
vn -0.0872 -0.9962 -0.0000
vn 0.0872 -0.9962 -0.0000
vn 0.2588 -0.9659 -0.0000
vn 0.4226 -0.9063 -0.0000
vn 0.5736 -0.8192 -0.0000
vn 0.7071 -0.7071 -0.0000
vn 0.8192 -0.5736 -0.0000
vn 0.9063 -0.4226 -0.0000
vn 0.9659 -0.2588 -0.0000
vn 0.9962 -0.0872 -0.0000
vn -0.8309 0.5564 -0.0000
vn -0.9125 0.4091 -0.0000
vn -0.9682 0.2502 -0.0000
vn -0.9965 0.0842 -0.0000
vn -0.6947 0.1862 -0.6948
vn -0.6947 0.1862 -0.6947
vn -0.5086 0.5086 -0.6947
vn -0.5086 0.5086 -0.6948
vn -0.1862 0.6947 -0.6948
vn -0.1862 0.6947 -0.6947
vn 0.1862 0.6947 -0.6947
vn 0.1862 0.6948 -0.6947
vn 0.5086 0.5086 -0.6947
vn 0.6947 0.1862 -0.6947
vn -0.1862 0.6948 -0.6947
vn 0.6947 0.1862 -0.6948
vn 0.9659 0.2588 -0.0000
vn 0.7071 0.7071 -0.0000
vn 0.2588 0.9659 -0.0000
vn -0.2588 0.9659 -0.0000
vn -0.7071 0.7071 -0.0000
vn -0.9659 0.2588 -0.0000
vn -0.0000 -0.0000 1.0000
vn -0.9749 -0.2225 -0.0000
vn -0.9658 -0.2588 -0.0134
vn -0.8841 -0.4673 -0.0000
vn -0.7580 -0.6523 -0.0000
vn -0.7069 -0.7069 -0.0224
vn -0.5633 -0.8262 -0.0000
vn -0.3653 -0.9309 -0.0000
vn -0.2587 -0.9656 -0.0269
vn -0.1120 -0.9937 -0.0000
vn 0.1120 -0.9937 -0.0000
vn 0.2587 -0.9656 -0.0269
vn 0.3653 -0.9309 -0.0000
vn 0.5633 -0.8262 -0.0000
vn 0.7069 -0.7069 -0.0224
vn 0.7580 -0.6523 -0.0000
vn 0.8841 -0.4673 -0.0000
vn 0.9658 -0.2588 -0.0134
vn 0.9749 -0.2225 -0.0000
vn 0.6948 0.1862 -0.6947
vn -0.4739 -0.8806 -0.0000
vn -1.0000 -0.0000 -0.0000
vn 0.9890 0.1479 -0.0000
vn 0.9972 0.0742 -0.0000
vn 0.9998 0.0186 -0.0000
vn 0.9998 -0.0186 -0.0000
vn 0.9890 -0.1479 -0.0000
vn 0.9972 -0.0742 -0.0000
vn -0.7021 -0.1193 0.7020
vn -0.5991 0.3955 0.6962
vt 0.797042 0.877766
vt 0.800783 0.877766
vt 0.800783 0.915745
vt 0.718471 0.877766
vt 0.898722 0.453049
vt 0.898722 0.478289
vt 0.894981 0.478289
vt 0.718471 0.915745
vt 0.718471 0.790433
vt 0.800783 0.790433
vt 0.800783 0.827145
vt 0.718471 0.827145
vt 0.877622 0.865702
vt 0.959935 0.865702
vt 0.959935 0.897869
vt 0.877622 0.897869
vt 0.816409 0.453049
vt 0.816409 0.478289
vt 0.837107 0.840272
vt 0.840849 0.840272
vt 0.840849 0.877708
vt 0.758536 0.877708
vt 0.758536 0.840272
vt 0.409935 0.062656
vt 0.840849 0.915411
vt 0.758536 0.915411
vt 0.758536 0.790100
vt 0.840849 0.790100
vt 0.840849 0.824704
vt 0.758536 0.824704
vt 0.917687 0.863261
vt 1.000000 0.863261
vt 0.996259 0.891678
vt 0.917687 0.891678
vt 0.800783 0.742408
vt 0.718471 0.742408
vt 0.578907 0.578539
vt 0.578907 0.110852
vt 0.642251 0.110853
vt 0.642251 0.578539
vt 0.709611 0.110852
vt 0.642251 0.703851
vt 0.709611 0.236164
vt 0.709611 0.703851
vt 0.779202 0.236164
vt 0.779202 0.703851
vt 0.779202 0.592998
vt 0.779202 0.125311
vt 0.849179 0.125311
vt 0.620051 0.665293
vt 0.690028 0.197607
vt 0.690028 0.665293
vt 0.690028 0.790605
vt 0.690028 0.322918
vt 0.758536 0.322918
vt 0.758536 0.790605
vt 0.877622 0.285996
vt 0.409935 0.285996
vt 0.409935 0.225929
vt 0.877622 0.411307
vt 0.409935 0.351240
vt 0.877622 0.351240
vt 0.935495 0.466912
vt 0.467808 0.466912
vt 0.467808 0.414492
vt 0.935495 0.592224
vt 0.467808 0.539803
vt 0.935495 0.539803
vt 0.718471 0.853261
vt 0.718471 0.385574
vt 0.770192 0.385574
vt 0.718471 0.742408
vt 0.770192 0.274721
vt 0.770192 0.742408
vt 0.829691 0.274721
vt 0.519408 0.578539
vt 0.877622 0.718424
vt 0.409935 0.718424
vt 0.409935 0.666171
vt 0.877622 0.843735
vt 0.409935 0.791482
vt 0.877622 0.791482
vt 0.877622 0.666171
vt 0.409935 0.605369
vt 0.409935 0.730681
vt 0.877622 0.730681
vt 0.877622 0.605369
vt 0.409935 0.537866
vt 0.409935 0.663177
vt 0.877622 0.663177
vt 0.877622 0.648718
vt 0.409935 0.648718
vt 0.409935 0.576564
vt 0.409935 0.591023
vt 0.877622 0.591023
vt 0.877622 0.576564
vt 0.409935 0.501952
vt 0.409935 0.516411
vt 0.877622 0.516411
vt 0.877622 0.501951
vt 0.409935 0.427148
vt 0.877622 0.627263
vt 0.409935 0.552459
vt 0.877622 0.552459
vt 0.877622 0.427148
vt 0.409935 0.354426
vt 0.409935 0.479738
vt 0.877622 0.479738
vt 0.877622 0.354426
vt 0.409935 0.411307
vt 0.837107 0.237305
vt 0.840849 0.237305
vt 0.840849 0.347221
vt 0.758536 0.347221
vt 0.758536 0.237305
vt 0.840849 0.463128
vt 0.758536 0.463128
vt 0.758536 0.523130
vt 0.840849 0.523130
vt 0.758536 0.584389
vt 0.840849 0.710335
vt 0.840849 0.584389
vt 0.758536 0.710335
s 0
usemtl Material.008
f 1/1/1 2/2/1 3/3/1
f 1/1/1 3/3/1 4/4/1
f 5/5/2 6/6/2 7/7/2
f 4/4/1 3/3/1 8/8/1
f 8/9/3 3/10/3 9/11/3
f 8/9/3 9/11/3 10/12/3
f 10/13/4 9/14/4 5/15/4
f 10/13/4 5/15/4 11/16/4
f 11/17/2 5/5/2 7/7/2
f 11/17/2 7/7/2 12/18/2
f 13/19/5 14/20/5 15/21/5
f 16/22/5 17/23/5 13/19/5
f 18/24/6 19/24/6 20/24/6
f 13/19/5 15/21/5 16/22/5
f 16/22/7 15/21/7 21/25/7
f 16/22/7 21/25/7 22/26/7
f 22/27/8 21/28/8 18/29/8
f 22/27/8 18/29/8 23/30/8
f 23/31/6 18/32/6 20/33/6
f 23/31/6 20/33/6 24/34/6
f 25/24/9 26/24/9 27/24/9
f 25/24/10 24/24/10 26/24/10
f 26/24/10 24/24/10 20/24/10
f 26/24/10 20/24/10 19/24/10
f 28/24/11 29/24/11 27/24/11
f 27/24/12 29/24/12 30/24/12
f 27/24/9 30/24/9 25/24/9
f 31/24/13 32/24/13 33/24/13
f 27/24/14 34/24/14 28/24/14
f 28/24/15 34/24/15 31/24/15
f 28/24/15 31/24/15 35/24/15
f 35/24/13 31/24/13 33/24/13
f 35/24/13 33/24/13 36/24/13
f 33/24/16 32/24/16 37/24/16
f 33/24/16 37/24/16 36/24/16
f 38/24/17 39/24/17 40/24/17
f 36/24/16 37/24/16 41/24/16
f 41/24/18 37/24/18 38/24/18
f 41/24/18 38/24/18 42/24/18
f 42/24/19 38/24/19 40/24/19
f 42/24/17 40/24/17 43/24/17
f 40/24/20 39/24/20 44/24/20
f 45/24/20 43/24/20 40/24/20
f 44/24/21 46/24/21 47/24/21
f 40/24/20 44/24/20 45/24/20
f 45/24/21 44/24/21 47/24/21
f 45/24/21 47/24/21 48/24/21
f 49/24/22 50/24/22 51/24/22
f 49/24/22 51/24/22 52/24/22
f 51/24/23 53/24/23 54/24/23
f 52/24/22 51/24/22 55/24/22
f 55/24/23 51/24/23 54/24/23
f 55/24/23 54/24/23 56/24/23
f 54/24/24 53/24/24 57/24/24
f 58/24/24 56/24/24 54/24/24
f 59/24/25 60/24/25 61/24/25
f 54/24/24 57/24/24 58/24/24
f 58/24/26 57/24/26 59/24/26
f 58/24/27 59/24/27 62/24/27
f 62/24/25 59/24/25 61/24/25
f 62/24/25 61/24/25 63/24/25
f 64/24/28 65/24/28 66/24/28
f 64/24/29 63/24/29 65/24/29
f 65/24/29 63/24/29 61/24/29
f 65/24/29 61/24/29 60/24/29
f 67/24/30 68/24/30 66/24/30
f 66/24/31 68/24/31 69/24/31
f 66/24/28 69/24/28 64/24/28
f 70/35/32 2/2/32 1/1/32
f 66/24/33 71/24/33 67/24/33
f 67/24/34 71/24/34 70/24/34
f 67/24/34 70/24/34 72/24/34
f 72/36/32 70/35/32 1/1/32
f 72/36/32 1/1/32 4/4/32
f 73/24/35 74/24/35 75/24/35
f 75/24/35 74/24/35 76/24/35
f 75/24/36 76/24/36 77/24/36
f 77/24/36 76/24/36 78/24/36
f 77/24/37 78/24/37 79/24/37
f 79/24/37 78/24/37 80/24/37
f 79/24/38 80/24/38 81/24/38
f 81/24/38 80/24/38 82/24/38
f 81/24/39 82/24/39 83/24/39
f 83/24/39 82/24/39 84/24/39
f 83/24/40 84/24/40 85/24/40
f 85/24/40 84/24/40 86/24/40
f 85/24/14 86/24/14 87/24/14
f 87/24/14 86/24/14 88/24/14
f 87/24/41 88/24/41 89/24/41
f 89/24/41 88/24/41 90/24/41
f 89/24/42 90/24/42 91/24/42
f 91/24/42 90/24/42 92/24/42
f 91/24/43 92/24/43 93/24/43
f 93/24/43 92/24/43 94/24/43
f 93/24/44 94/24/44 95/24/44
f 95/24/44 94/24/44 96/24/44
f 95/24/45 96/24/45 97/24/45
f 97/24/45 96/24/45 98/24/45
f 97/24/46 98/24/46 99/24/46
f 99/24/46 98/24/46 100/24/46
f 99/24/47 100/24/47 101/24/47
f 101/24/47 100/24/47 102/24/47
f 101/24/48 102/24/48 103/24/48
f 103/24/48 102/24/48 104/24/48
f 103/24/49 104/24/49 105/24/49
f 105/24/49 104/24/49 106/24/49
f 105/24/50 106/24/50 107/24/50
f 107/24/50 106/24/50 108/24/50
f 107/24/51 108/24/51 109/24/51
f 109/24/51 108/24/51 110/24/51
f 109/24/52 110/24/52 111/24/52
f 111/24/52 110/24/52 112/24/52
f 111/24/33 112/24/33 113/24/33
f 113/24/33 112/24/33 114/24/33
f 113/24/53 114/24/53 115/24/53
f 115/24/53 114/24/53 116/24/53
f 115/24/54 116/24/54 117/24/54
f 117/24/54 116/24/54 118/24/54
f 117/24/55 118/24/55 119/24/55
f 119/24/55 118/24/55 120/24/55
f 119/24/56 120/24/56 121/24/56
f 121/24/56 120/24/56 122/24/56
f 121/24/57 122/24/57 123/24/57
f 123/24/57 122/24/57 124/24/57
f 123/24/58 124/24/58 73/24/58
f 73/24/58 124/24/58 74/24/58
f 125/24/59 126/24/59 127/24/59
f 127/24/60 126/24/60 128/24/60
f 127/24/61 128/24/61 129/24/61
f 129/24/62 128/24/62 130/24/62
f 129/24/63 130/24/63 131/24/63
f 131/24/63 130/24/63 132/24/63
f 131/24/64 132/24/64 133/24/64
f 133/24/64 132/24/64 134/24/64
f 133/24/65 134/24/65 135/24/65
f 135/24/65 134/24/65 136/24/65
f 135/24/66 136/24/66 137/24/66
f 137/24/67 136/24/67 138/24/67
f 137/24/68 138/24/68 139/24/68
f 139/24/69 138/24/69 140/24/69
f 139/24/70 140/24/70 141/24/70
f 141/24/71 140/24/71 142/24/71
f 141/24/72 142/24/72 143/24/72
f 143/24/73 142/24/73 144/24/73
f 143/24/74 144/24/74 145/24/74
f 145/24/75 144/24/75 146/24/75
f 145/24/76 146/24/76 147/24/76
f 147/24/77 146/24/77 148/24/77
f 147/24/78 148/24/78 149/24/78
f 149/24/78 148/24/78 150/24/78
f 149/24/79 150/24/79 151/24/79
f 151/24/80 150/24/80 152/24/80
f 151/24/81 152/24/81 153/24/81
f 153/24/81 152/24/81 154/24/81
f 153/24/82 154/24/82 125/24/82
f 125/24/82 154/24/82 126/24/82
f 155/24/83 25/24/83 156/24/83
f 156/24/83 25/24/83 30/24/83
f 156/24/83 30/24/83 157/24/83
f 157/24/83 30/24/83 29/24/83
f 157/24/83 29/24/83 158/24/83
f 158/24/83 29/24/83 28/24/83
f 158/24/83 28/24/83 159/24/83
f 159/24/83 28/24/83 35/24/83
f 159/24/83 35/24/83 160/24/83
f 155/24/83 161/24/83 25/24/83
f 25/24/83 161/24/83 162/24/83
f 25/24/83 162/24/83 24/24/83
f 24/24/83 162/24/83 163/24/83
f 24/24/83 163/24/83 23/24/83
f 164/24/83 165/24/83 166/24/83
f 166/24/83 165/24/83 167/24/83
f 166/24/83 167/24/83 168/24/83
f 168/24/83 167/24/83 169/24/83
f 168/24/83 169/24/83 170/24/83
f 170/24/83 169/24/83 171/24/83
f 170/24/83 171/24/83 161/24/83
f 161/24/83 171/24/83 172/24/83
f 161/24/83 172/24/83 162/24/83
f 163/24/83 173/24/83 23/24/83
f 23/24/83 173/24/83 174/24/83
f 23/24/83 174/24/83 22/24/83
f 22/24/83 174/24/83 175/24/83
f 22/24/83 175/24/83 16/24/83
f 16/24/83 175/24/83 176/24/83
f 16/24/83 176/24/83 17/24/83
f 17/24/83 176/24/83 177/24/83
f 17/24/83 177/24/83 178/24/83
f 178/24/83 177/24/83 179/24/83
f 178/24/83 179/24/83 180/24/83
f 180/24/83 179/24/83 165/24/83
f 180/24/83 165/24/83 181/24/83
f 181/24/83 165/24/83 164/24/83
f 182/24/83 183/24/83 184/24/83
f 185/24/83 186/24/83 187/24/83
f 187/24/83 186/24/83 188/24/83
f 187/24/83 188/24/83 189/24/83
f 189/24/83 188/24/83 181/24/83
f 189/24/83 181/24/83 190/24/83
f 190/24/83 181/24/83 164/24/83
f 185/24/83 182/24/83 186/24/83
f 186/24/83 182/24/83 184/24/83
f 186/24/83 184/24/83 12/24/83
f 12/24/83 184/24/83 191/24/83
f 12/24/83 191/24/83 11/24/83
f 191/24/83 192/24/83 11/24/83
f 11/24/83 192/24/83 193/24/83
f 11/24/83 193/24/83 10/24/83
f 10/24/83 193/24/83 194/24/83
f 10/24/83 194/24/83 8/24/83
f 8/24/83 194/24/83 195/24/83
f 8/24/83 195/24/83 4/24/83
f 4/24/83 195/24/83 196/24/83
f 4/24/83 196/24/83 72/24/83
f 72/24/83 196/24/83 197/24/83
f 72/24/83 197/24/83 198/24/83
f 183/24/83 182/24/83 199/24/83
f 199/24/83 182/24/83 200/24/83
f 199/24/83 200/24/83 201/24/83
f 201/24/83 200/24/83 202/24/83
f 201/24/83 202/24/83 203/24/83
f 203/24/83 202/24/83 204/24/83
f 203/24/83 204/24/83 198/24/83
f 198/24/83 204/24/83 72/24/83
f 72/24/83 204/24/83 205/24/83
f 72/24/83 205/24/83 67/24/83
f 206/24/83 207/24/83 208/24/83
f 208/24/83 207/24/83 209/24/83
f 208/24/83 209/24/83 210/24/83
f 210/24/83 209/24/83 211/24/83
f 210/24/83 211/24/83 212/24/83
f 212/24/83 211/24/83 213/24/83
f 212/24/83 213/24/83 214/24/83
f 214/24/83 213/24/83 215/24/83
f 214/24/83 215/24/83 216/24/83
f 216/24/83 215/24/83 217/24/83
f 216/24/83 217/24/83 218/24/83
f 218/24/83 217/24/83 160/24/83
f 218/24/83 160/24/83 219/24/83
f 219/24/83 160/24/83 35/24/83
f 219/24/83 35/24/83 220/24/83
f 220/24/83 35/24/83 36/24/83
f 220/24/83 36/24/83 221/24/83
f 221/24/83 36/24/83 41/24/83
f 221/24/83 41/24/83 222/24/83
f 222/24/83 41/24/83 42/24/83
f 222/24/83 42/24/83 223/24/83
f 223/24/83 42/24/83 43/24/83
f 223/24/83 43/24/83 224/24/83
f 224/24/83 43/24/83 45/24/83
f 224/24/83 45/24/83 225/24/83
f 225/24/83 45/24/83 48/24/83
f 225/24/83 48/24/83 226/24/83
f 226/24/83 48/24/83 208/24/83
f 226/24/83 208/24/83 210/24/83
f 227/24/83 228/24/83 229/24/83
f 229/24/83 228/24/83 230/24/83
f 229/24/83 230/24/83 231/24/83
f 231/24/83 230/24/83 232/24/83
f 231/24/83 232/24/83 233/24/83
f 233/24/83 232/24/83 234/24/83
f 233/24/83 234/24/83 235/24/83
f 69/24/83 236/24/83 64/24/83
f 64/24/83 236/24/83 237/24/83
f 64/24/83 237/24/83 235/24/83
f 227/24/83 206/24/83 228/24/83
f 228/24/83 206/24/83 208/24/83
f 228/24/83 208/24/83 238/24/83
f 238/24/83 208/24/83 52/24/83
f 238/24/83 52/24/83 239/24/83
f 239/24/83 52/24/83 55/24/83
f 239/24/83 55/24/83 240/24/83
f 240/24/83 55/24/83 56/24/83
f 240/24/83 56/24/83 241/24/83
f 241/24/83 56/24/83 58/24/83
f 241/24/83 58/24/83 242/24/83
f 242/24/83 58/24/83 62/24/83
f 242/24/83 62/24/83 243/24/83
f 243/24/83 62/24/83 63/24/83
f 243/24/83 63/24/83 244/24/83
f 244/24/83 63/24/83 64/24/83
f 244/24/83 64/24/83 245/24/83
f 245/24/83 64/24/83 235/24/83
f 245/24/83 235/24/83 246/24/83
f 246/24/83 235/24/83 234/24/83
f 205/24/83 247/24/83 67/24/83
f 67/24/83 247/24/83 248/24/83
f 67/24/83 248/24/83 68/24/83
f 68/24/83 248/24/83 249/24/83
f 68/24/83 249/24/83 69/24/83
f 69/24/83 249/24/83 250/24/83
f 69/24/83 250/24/83 236/24/83
f 251/24/83 252/24/83 253/24/83
f 253/24/83 252/24/83 254/24/83
f 253/24/83 254/24/83 255/24/83
f 255/24/83 254/24/83 256/24/83
f 255/24/83 256/24/83 257/24/83
f 257/24/83 256/24/83 258/24/83
f 257/24/83 258/24/83 259/24/83
f 259/24/83 258/24/83 260/24/83
f 259/24/83 260/24/83 261/24/83
f 261/24/83 260/24/83 262/24/83
f 261/24/83 262/24/83 263/24/83
f 262/24/83 264/24/83 263/24/83
f 263/24/83 264/24/83 265/24/83
f 263/24/83 265/24/83 266/24/83
f 266/24/83 265/24/83 267/24/83
f 266/24/83 267/24/83 268/24/83
f 268/24/83 267/24/83 269/24/83
f 268/24/83 269/24/83 270/24/83
f 270/24/83 269/24/83 271/24/83
f 270/24/83 271/24/83 272/24/83
f 272/24/83 271/24/83 273/24/83
f 272/24/83 273/24/83 274/24/83
f 274/24/83 273/24/83 275/24/83
f 274/24/83 275/24/83 251/24/83
f 251/24/83 275/24/83 276/24/83
f 251/24/83 276/24/83 252/24/83
f 277/24/83 278/24/83 279/24/83
f 279/24/83 278/24/83 280/24/83
f 279/24/83 280/24/83 281/24/83
f 281/24/83 280/24/83 282/24/83
f 281/24/83 282/24/83 283/24/83
f 283/24/83 282/24/83 284/24/83
f 283/24/83 284/24/83 285/24/83
f 285/24/83 284/24/83 286/24/83
f 285/24/83 286/24/83 287/24/83
f 287/24/83 286/24/83 288/24/83
f 287/24/83 288/24/83 289/24/83
f 288/24/83 290/24/83 289/24/83
f 289/24/83 290/24/83 291/24/83
f 289/24/83 291/24/83 292/24/83
f 292/24/83 291/24/83 293/24/83
f 292/24/83 293/24/83 294/24/83
f 294/24/83 293/24/83 295/24/83
f 294/24/83 295/24/83 296/24/83
f 296/24/83 295/24/83 297/24/83
f 296/24/83 297/24/83 298/24/83
f 298/24/83 297/24/83 299/24/83
f 298/24/83 299/24/83 300/24/83
f 300/24/83 299/24/83 301/24/83
f 300/24/83 301/24/83 277/24/83
f 277/24/83 301/24/83 302/24/83
f 277/24/83 302/24/83 278/24/83
f 303/24/83 304/24/83 305/24/83
f 305/24/83 304/24/83 306/24/83
f 305/24/83 306/24/83 307/24/83
f 307/24/83 306/24/83 308/24/83
f 307/24/83 308/24/83 309/24/83
f 309/24/83 308/24/83 310/24/83
f 309/24/83 310/24/83 311/24/83
f 311/24/83 310/24/83 312/24/83
f 311/24/83 312/24/83 313/24/83
f 313/24/83 312/24/83 314/24/83
f 313/24/83 314/24/83 315/24/83
f 314/24/83 316/24/83 315/24/83
f 315/24/83 316/24/83 317/24/83
f 315/24/83 317/24/83 318/24/83
f 318/24/83 317/24/83 319/24/83
f 318/24/83 319/24/83 320/24/83
f 320/24/83 319/24/83 321/24/83
f 320/24/83 321/24/83 322/24/83
f 322/24/83 321/24/83 323/24/83
f 322/24/83 323/24/83 324/24/83
f 324/24/83 323/24/83 325/24/83
f 324/24/83 325/24/83 326/24/83
f 326/24/83 325/24/83 327/24/83
f 326/24/83 327/24/83 303/24/83
f 303/24/83 327/24/83 328/24/83
f 303/24/83 328/24/83 304/24/83
f 193/24/84 192/24/84 329/24/84
f 329/24/84 330/24/84 193/24/84
f 193/24/85 330/24/85 331/24/85
f 193/24/86 331/24/86 194/24/86
f 331/24/87 332/24/87 194/24/87
f 194/24/88 332/24/88 333/24/88
f 194/24/89 333/24/89 195/24/89
f 333/24/90 334/24/90 195/24/90
f 195/24/91 334/24/91 335/24/91
f 195/24/92 335/24/92 196/24/92
f 196/24/93 335/24/93 336/24/93
f 196/24/94 336/24/94 197/24/94
f 336/24/95 337/24/95 197/24/95
f 197/24/96 337/24/96 338/24/96
f 197/24/97 338/24/97 198/24/97
f 339/24/98 203/24/98 340/24/98
f 340/24/98 203/24/98 198/24/98
f 340/24/99 198/24/99 341/24/99
f 341/24/100 198/24/100 338/24/100
f 120/24/83 342/24/83 122/24/83
f 122/24/83 342/24/83 343/24/83
f 122/24/83 343/24/83 124/24/83
f 124/24/83 343/24/83 344/24/83
f 124/24/83 344/24/83 74/24/83
f 74/24/83 344/24/83 345/24/83
f 74/24/83 345/24/83 76/24/83
f 76/24/83 345/24/83 346/24/83
f 76/24/83 346/24/83 78/24/83
f 116/24/83 347/24/83 118/24/83
f 118/24/83 347/24/83 348/24/83
f 118/24/83 348/24/83 120/24/83
f 120/24/83 348/24/83 349/24/83
f 120/24/83 349/24/83 342/24/83
f 112/24/83 350/24/83 114/24/83
f 114/24/83 350/24/83 351/24/83
f 114/24/83 351/24/83 116/24/83
f 116/24/83 351/24/83 352/24/83
f 116/24/83 352/24/83 347/24/83
f 108/24/83 353/24/83 110/24/83
f 110/24/83 353/24/83 354/24/83
f 110/24/83 354/24/83 112/24/83
f 112/24/83 354/24/83 355/24/83
f 112/24/83 355/24/83 350/24/83
f 104/24/83 356/24/83 106/24/83
f 106/24/83 356/24/83 357/24/83
f 106/24/83 357/24/83 108/24/83
f 108/24/83 357/24/83 358/24/83
f 108/24/83 358/24/83 353/24/83
f 84/24/83 82/24/83 359/24/83
f 359/24/83 82/24/83 80/24/83
f 359/24/83 80/24/83 360/24/83
f 360/24/83 80/24/83 78/24/83
f 360/24/83 78/24/83 361/24/83
f 361/24/83 78/24/83 346/24/83
f 92/24/83 90/24/83 362/24/83
f 362/24/83 90/24/83 88/24/83
f 362/24/83 88/24/83 359/24/83
f 359/24/83 88/24/83 86/24/83
f 359/24/83 86/24/83 84/24/83
f 92/24/83 362/24/83 94/24/83
f 94/24/83 362/24/83 363/24/83
f 94/24/83 363/24/83 96/24/83
f 96/24/83 363/24/83 364/24/83
f 96/24/83 364/24/83 98/24/83
f 98/24/83 364/24/83 365/24/83
f 98/24/83 365/24/83 100/24/83
f 100/24/83 365/24/83 366/24/83
f 100/24/83 366/24/83 102/24/83
f 102/24/83 366/24/83 367/24/83
f 102/24/83 367/24/83 104/24/83
f 104/24/83 367/24/83 368/24/83
f 104/24/83 368/24/83 356/24/83
f 141/24/101 369/24/101 139/24/101
f 139/24/101 369/24/101 370/24/101
f 139/24/102 370/24/102 137/24/102
f 137/24/102 370/24/102 371/24/102
f 137/24/103 371/24/103 135/24/103
f 135/24/103 371/24/103 372/24/103
f 135/24/14 372/24/14 133/24/14
f 133/24/14 372/24/14 373/24/14
f 133/24/104 373/24/104 131/24/104
f 131/24/105 373/24/105 374/24/105
f 375/24/106 125/24/106 376/24/106
f 376/24/106 125/24/106 377/24/106
f 376/24/107 377/24/107 374/24/107
f 374/24/107 377/24/107 378/24/107
f 374/24/108 378/24/108 131/24/108
f 125/24/109 375/24/109 153/24/109
f 153/24/109 375/24/109 379/24/109
f 153/24/110 379/24/110 151/24/110
f 151/24/110 379/24/110 380/24/110
f 151/24/111 380/24/111 149/24/111
f 149/24/111 380/24/111 381/24/111
f 149/24/33 381/24/33 147/24/33
f 147/24/33 381/24/33 382/24/33
f 147/24/112 382/24/112 145/24/112
f 145/24/112 382/24/112 383/24/112
f 145/24/113 383/24/113 143/24/113
f 143/24/113 383/24/113 384/24/113
f 143/24/114 384/24/114 141/24/114
f 141/24/114 384/24/114 369/24/114
f 200/37/115 362/38/115 385/39/115
f 200/37/115 385/39/115 202/40/115
f 202/40/116 385/39/116 386/41/116
f 202/42/116 386/43/116 204/44/116
f 204/44/117 386/43/117 387/45/117
f 204/44/117 387/45/117 205/46/117
f 205/47/118 387/48/118 388/49/118
f 205/50/118 388/51/118 247/52/118
f 247/53/119 388/54/119 389/55/119
f 247/53/119 389/55/119 248/56/119
f 390/24/120 359/24/120 391/24/120
f 248/24/121 389/24/121 249/24/121
f 249/24/122 389/24/122 392/24/122
f 249/24/123 392/24/123 250/24/123
f 250/24/124 392/24/124 393/24/124
f 250/24/124 393/24/124 236/24/124
f 236/24/125 393/24/125 394/24/125
f 236/24/125 394/24/125 237/24/125
f 237/24/126 394/24/126 395/24/126
f 237/24/126 395/24/126 235/24/126
f 235/24/127 395/24/127 390/24/127
f 235/24/127 390/24/127 233/24/127
f 233/24/120 390/24/120 391/24/120
f 233/24/120 391/24/120 231/24/120
f 189/57/128 366/58/128 365/59/128
f 189/60/128 365/61/128 187/62/128
f 187/63/129 365/64/129 364/65/129
f 187/66/129 364/67/129 185/68/129
f 185/69/130 364/70/130 363/71/130
f 185/72/130 363/73/130 182/74/130
f 182/74/131 363/73/131 362/75/131
f 182/76/131 362/38/131 200/37/131
f 207/24/132 345/24/132 344/24/132
f 207/24/132 344/24/132 209/24/132
f 209/24/133 344/24/133 343/24/133
f 209/24/133 343/24/133 211/24/133
f 211/24/134 343/24/134 342/24/134
f 211/24/134 342/24/134 213/24/134
f 213/24/135 342/24/135 349/24/135
f 213/24/135 349/24/135 215/24/135
f 215/24/136 349/24/136 348/24/136
f 215/24/136 348/24/136 217/24/136
f 217/24/137 348/24/137 347/24/137
f 217/24/137 347/24/137 160/24/137
f 160/24/138 347/24/138 352/24/138
f 160/24/138 352/24/138 159/24/138
f 159/24/139 352/24/139 351/24/139
f 159/24/139 351/24/139 158/24/139
f 158/24/140 351/24/140 350/24/140
f 158/24/140 350/24/140 157/24/140
f 157/24/141 350/24/141 355/24/141
f 157/24/141 355/24/141 156/24/141
f 156/77/142 355/78/142 354/79/142
f 156/80/142 354/81/142 155/82/142
f 155/83/143 354/79/143 353/84/143
f 155/82/143 353/85/143 161/86/143
f 161/87/144 353/84/144 358/88/144
f 161/86/144 358/89/144 170/90/144
f 170/91/145 358/92/145 357/93/145
f 170/90/145 357/94/145 168/95/145
f 168/96/146 357/93/146 356/97/146
f 168/95/146 356/98/146 166/99/146
f 166/100/147 356/97/147 368/101/147
f 166/102/147 368/103/147 164/104/147
f 164/105/148 368/101/148 367/106/148
f 164/104/148 367/107/148 190/108/148
f 190/109/149 367/106/149 366/58/149
f 190/108/149 366/110/149 189/60/149
f 391/24/150 359/24/150 360/24/150
f 229/24/150 231/24/150 391/24/150
f 391/24/150 360/24/150 229/24/150
f 229/24/151 360/24/151 361/24/151
f 229/24/151 361/24/151 227/24/151
f 227/24/152 361/24/152 346/24/152
f 227/24/152 346/24/152 206/24/152
f 206/24/153 346/24/153 345/24/153
f 206/24/153 345/24/153 207/24/153
f 396/24/154 246/24/154 397/24/154
f 397/24/155 246/24/155 398/24/155
f 397/24/156 398/24/156 399/24/156
f 399/24/157 398/24/157 232/24/157
f 399/24/158 232/24/158 400/24/158
f 400/24/159 232/24/159 230/24/159
f 400/24/160 230/24/160 401/24/160
f 401/24/161 230/24/161 228/24/161
f 401/24/162 228/24/162 402/24/162
f 402/24/162 228/24/162 238/24/162
f 402/24/163 238/24/163 403/24/163
f 403/24/163 238/24/163 239/24/163
f 404/24/154 176/24/154 405/24/154
f 405/24/155 176/24/155 175/24/155
f 405/24/156 175/24/156 406/24/156
f 406/24/156 175/24/156 174/24/156
f 406/24/164 174/24/164 407/24/164
f 407/24/159 174/24/159 173/24/159
f 407/24/160 173/24/160 408/24/160
f 408/24/160 173/24/160 163/24/160
f 408/24/162 163/24/162 409/24/162
f 409/24/162 163/24/162 162/24/162
f 409/24/163 162/24/163 410/24/163
f 410/24/163 162/24/163 172/24/163
f 411/24/154 218/24/154 412/24/154
f 412/24/155 218/24/155 413/24/155
f 412/24/156 413/24/156 414/24/156
f 414/24/157 413/24/157 220/24/157
f 414/24/159 220/24/159 415/24/159
f 415/24/158 220/24/158 221/24/158
f 415/24/160 221/24/160 416/24/160
f 416/24/160 221/24/160 222/24/160
f 416/24/162 222/24/162 417/24/162
f 417/24/162 222/24/162 223/24/162
f 417/24/163 223/24/163 418/24/163
f 418/24/165 223/24/165 224/24/165
f 403/24/166 309/24/166 402/24/166
f 402/24/166 309/24/166 311/24/166
f 402/24/167 311/24/167 401/24/167
f 401/24/167 311/24/167 313/24/167
f 401/24/168 313/24/168 400/24/168
f 400/24/168 313/24/168 315/24/168
f 400/24/169 315/24/169 399/24/169
f 399/24/169 315/24/169 318/24/169
f 399/24/170 318/24/170 397/24/170
f 397/24/170 318/24/170 320/24/170
f 397/24/171 320/24/171 396/24/171
f 396/24/171 320/24/171 322/24/171
f 410/24/166 283/24/166 409/24/166
f 409/24/166 283/24/166 285/24/166
f 409/24/167 285/24/167 408/24/167
f 408/24/167 285/24/167 287/24/167
f 408/24/168 287/24/168 407/24/168
f 407/24/168 287/24/168 289/24/168
f 407/24/169 289/24/169 406/24/169
f 406/24/169 289/24/169 292/24/169
f 406/24/170 292/24/170 405/24/170
f 405/24/170 292/24/170 294/24/170
f 405/24/171 294/24/171 404/24/171
f 404/24/171 294/24/171 296/24/171
f 418/24/166 257/24/166 417/24/166
f 417/24/166 257/24/166 259/24/166
f 417/24/167 259/24/167 416/24/167
f 416/24/167 259/24/167 261/24/167
f 416/24/168 261/24/168 415/24/168
f 415/24/168 261/24/168 263/24/168
f 415/24/169 263/24/169 414/24/169
f 414/24/169 263/24/169 266/24/169
f 414/24/170 266/24/170 412/24/170
f 412/24/170 266/24/170 268/24/170
f 412/24/171 268/24/171 411/24/171
f 411/24/171 268/24/171 270/24/171
f 379/24/172 375/24/172 384/24/172
f 372/24/172 371/24/172 370/24/172
f 376/24/172 374/24/172 373/24/172
f 384/24/172 383/24/172 382/24/172
f 373/24/172 372/24/172 376/24/172
f 376/24/172 372/24/172 370/24/172
f 376/24/172 370/24/172 375/24/172
f 375/24/172 370/24/172 369/24/172
f 375/24/172 369/24/172 384/24/172
f 379/24/172 384/24/172 380/24/172
f 380/24/172 384/24/172 382/24/172
f 380/24/172 382/24/172 381/24/172
f 362/24/83 359/24/83 390/24/83
f 394/24/83 393/24/83 385/24/83
f 362/24/83 390/24/83 385/24/83
f 385/24/83 390/24/83 395/24/83
f 385/24/83 395/24/83 394/24/83
f 393/24/83 392/24/83 385/24/83
f 385/24/83 392/24/83 389/24/83
f 385/24/83 389/24/83 386/24/83
f 386/24/83 389/24/83 388/24/83
f 386/24/83 388/24/83 387/24/83
f 411/24/173 270/24/173 419/24/173
f 419/24/174 270/24/174 272/24/174
f 419/24/175 272/24/175 420/24/175
f 420/24/176 272/24/176 421/24/176
f 421/24/177 272/24/177 274/24/177
f 421/24/178 274/24/178 422/24/178
f 422/24/179 274/24/179 423/24/179
f 423/24/180 274/24/180 251/24/180
f 423/24/181 251/24/181 424/24/181
f 424/24/182 251/24/182 425/24/182
f 425/24/183 251/24/183 253/24/183
f 425/24/184 253/24/184 426/24/184
f 426/24/185 253/24/185 427/24/185
f 427/24/186 253/24/186 255/24/186
f 427/24/187 255/24/187 428/24/187
f 428/24/188 255/24/188 429/24/188
f 429/24/189 255/24/189 257/24/189
f 429/24/190 257/24/190 418/24/190
f 404/24/173 296/24/173 430/24/173
f 430/24/174 296/24/174 298/24/174
f 430/24/175 298/24/175 431/24/175
f 431/24/176 298/24/176 432/24/176
f 432/24/177 298/24/177 300/24/177
f 432/24/178 300/24/178 433/24/178
f 433/24/179 300/24/179 434/24/179
f 434/24/180 300/24/180 277/24/180
f 434/24/181 277/24/181 435/24/181
f 435/24/182 277/24/182 436/24/182
f 436/24/183 277/24/183 279/24/183
f 436/24/184 279/24/184 437/24/184
f 437/24/185 279/24/185 438/24/185
f 438/24/186 279/24/186 281/24/186
f 438/24/187 281/24/187 439/24/187
f 439/24/188 281/24/188 440/24/188
f 440/24/189 281/24/189 283/24/189
f 440/24/190 283/24/190 410/24/190
f 396/24/173 322/24/173 441/24/173
f 441/24/174 322/24/174 324/24/174
f 441/24/175 324/24/175 442/24/175
f 442/24/176 324/24/176 443/24/176
f 443/24/177 324/24/177 326/24/177
f 443/24/178 326/24/178 444/24/178
f 444/24/179 326/24/179 445/24/179
f 445/24/180 326/24/180 303/24/180
f 445/24/181 303/24/181 446/24/181
f 446/24/182 303/24/182 447/24/182
f 447/24/183 303/24/183 305/24/183
f 447/24/184 305/24/184 448/24/184
f 448/24/185 305/24/185 449/24/185
f 449/24/186 305/24/186 307/24/186
f 449/24/187 307/24/187 450/24/187
f 450/24/188 307/24/188 451/24/188
f 451/24/189 307/24/189 309/24/189
f 451/24/190 309/24/190 403/24/190
f 216/24/84 218/24/84 411/24/84
f 411/24/84 419/24/84 216/24/84
f 216/24/85 419/24/85 420/24/85
f 216/24/86 420/24/86 214/24/86
f 420/24/87 421/24/87 214/24/87
f 214/24/88 421/24/88 422/24/88
f 214/24/89 422/24/89 212/24/89
f 422/24/90 423/24/90 212/24/90
f 212/24/91 423/24/91 424/24/91
f 212/24/92 424/24/92 210/24/92
f 210/24/93 424/24/93 425/24/93
f 210/24/94 425/24/94 226/24/94
f 425/24/95 426/24/95 226/24/95
f 226/24/96 426/24/96 427/24/96
f 226/24/97 427/24/97 225/24/97
f 418/24/98 224/24/98 429/24/98
f 429/24/98 224/24/98 225/24/98
f 429/24/99 225/24/99 428/24/99
f 428/24/100 225/24/100 427/24/100
f 177/24/84 176/24/84 404/24/84
f 404/24/84 430/24/84 177/24/84
f 177/24/85 430/24/85 431/24/85
f 177/24/86 431/24/86 179/24/86
f 431/24/87 432/24/87 179/24/87
f 179/24/88 432/24/88 433/24/88
f 179/24/89 433/24/89 165/24/89
f 433/24/90 434/24/90 165/24/90
f 165/24/91 434/24/91 435/24/91
f 165/24/92 435/24/92 167/24/92
f 167/24/93 435/24/93 436/24/93
f 167/24/94 436/24/94 169/24/94
f 436/24/95 437/24/95 169/24/95
f 169/24/96 437/24/96 438/24/96
f 169/24/97 438/24/97 171/24/97
f 410/24/98 172/24/98 440/24/98
f 440/24/98 172/24/98 171/24/98
f 440/24/99 171/24/99 439/24/99
f 439/24/100 171/24/100 438/24/100
f 245/24/84 246/24/84 396/24/84
f 396/24/84 441/24/84 245/24/84
f 245/24/85 441/24/85 442/24/85
f 245/24/86 442/24/86 244/24/86
f 442/24/87 443/24/87 244/24/87
f 244/24/88 443/24/88 444/24/88
f 244/24/89 444/24/89 243/24/89
f 444/24/90 445/24/90 243/24/90
f 243/24/91 445/24/91 446/24/91
f 243/24/92 446/24/92 242/24/92
f 242/24/93 446/24/93 447/24/93
f 242/24/94 447/24/94 241/24/94
f 447/24/95 448/24/95 241/24/95
f 241/24/96 448/24/96 449/24/96
f 241/24/97 449/24/97 240/24/97
f 403/24/98 239/24/98 451/24/98
f 451/24/98 239/24/98 240/24/98
f 451/24/99 240/24/99 450/24/99
f 450/24/100 240/24/100 449/24/100
f 329/24/154 192/24/154 452/24/154
f 452/24/155 192/24/155 191/24/155
f 452/24/156 191/24/156 453/24/156
f 453/24/157 191/24/157 184/24/157
f 453/24/159 184/24/159 454/24/159
f 454/24/159 184/24/159 183/24/159
f 454/24/160 183/24/160 455/24/160
f 455/24/161 183/24/161 199/24/161
f 455/24/162 199/24/162 456/24/162
f 456/24/162 199/24/162 201/24/162
f 456/24/191 201/24/191 339/24/191
f 339/24/163 201/24/163 203/24/163
f 329/24/173 457/24/173 330/24/173
f 330/24/174 457/24/174 458/24/174
f 330/24/175 458/24/175 331/24/175
f 331/24/176 458/24/176 332/24/176
f 332/24/177 458/24/177 459/24/177
f 332/24/178 459/24/178 333/24/178
f 333/24/179 459/24/179 334/24/179
f 334/24/180 459/24/180 460/24/180
f 334/24/181 460/24/181 335/24/181
f 335/24/182 460/24/182 336/24/182
f 336/24/183 460/24/183 461/24/183
f 336/24/184 461/24/184 337/24/184
f 337/24/185 461/24/185 338/24/185
f 338/24/186 461/24/186 462/24/186
f 338/24/187 462/24/187 341/24/187
f 341/24/188 462/24/188 340/24/188
f 340/24/189 462/24/189 463/24/189
f 340/24/190 463/24/190 339/24/190
f 339/24/166 463/24/166 456/24/166
f 456/24/166 463/24/166 464/24/166
f 456/24/167 464/24/167 455/24/167
f 455/24/167 464/24/167 465/24/167
f 455/24/168 465/24/168 454/24/168
f 454/24/168 465/24/168 466/24/168
f 454/24/169 466/24/169 453/24/169
f 453/24/169 466/24/169 467/24/169
f 453/24/170 467/24/170 452/24/170
f 452/24/170 467/24/170 468/24/170
f 452/24/171 468/24/171 329/24/171
f 329/24/171 468/24/171 457/24/171
f 460/24/83 469/24/83 461/24/83
f 461/24/83 469/24/83 470/24/83
f 461/24/83 470/24/83 462/24/83
f 462/24/83 470/24/83 471/24/83
f 462/24/83 471/24/83 463/24/83
f 463/24/83 471/24/83 472/24/83
f 463/24/83 472/24/83 464/24/83
f 464/24/83 472/24/83 473/24/83
f 464/24/83 473/24/83 465/24/83
f 465/24/83 473/24/83 474/24/83
f 465/24/83 474/24/83 466/24/83
f 474/24/83 475/24/83 466/24/83
f 466/24/83 475/24/83 476/24/83
f 466/24/83 476/24/83 467/24/83
f 467/24/83 476/24/83 477/24/83
f 467/24/83 477/24/83 468/24/83
f 468/24/83 477/24/83 478/24/83
f 468/24/83 478/24/83 457/24/83
f 457/24/83 478/24/83 479/24/83
f 457/24/83 479/24/83 458/24/83
f 458/24/83 479/24/83 480/24/83
f 458/24/83 480/24/83 459/24/83
f 459/24/83 480/24/83 481/24/83
f 459/24/83 481/24/83 460/24/83
f 460/24/83 481/24/83 482/24/83
f 460/24/83 482/24/83 469/24/83
f 323/24/106 483/24/106 325/24/106
f 325/24/106 483/24/106 484/24/106
f 325/24/107 484/24/107 327/24/107
f 327/24/107 484/24/107 485/24/107
f 327/24/192 485/24/192 328/24/192
f 328/24/192 485/24/192 486/24/192
f 328/24/14 486/24/14 304/24/14
f 304/24/14 486/24/14 487/24/14
f 304/24/103 487/24/103 306/24/103
f 306/24/103 487/24/103 488/24/103
f 306/24/102 488/24/102 308/24/102
f 308/24/102 488/24/102 489/24/102
f 308/24/101 489/24/101 310/24/101
f 310/24/101 489/24/101 490/24/101
f 310/24/114 490/24/114 312/24/114
f 312/24/114 490/24/114 491/24/114
f 312/24/113 491/24/113 314/24/113
f 314/24/113 491/24/113 492/24/113
f 314/24/112 492/24/112 316/24/112
f 316/24/112 492/24/112 493/24/112
f 316/24/33 493/24/33 317/24/33
f 317/24/33 493/24/33 494/24/33
f 317/24/111 494/24/111 319/24/111
f 319/24/111 494/24/111 495/24/111
f 319/24/110 495/24/110 321/24/110
f 321/24/110 495/24/110 496/24/110
f 321/24/109 496/24/109 323/24/109
f 323/24/109 496/24/109 483/24/109
f 284/24/114 497/24/114 286/24/114
f 286/24/114 497/24/114 498/24/114
f 286/24/113 498/24/113 288/24/113
f 288/24/113 498/24/113 499/24/113
f 288/24/112 499/24/112 290/24/112
f 290/24/112 499/24/112 500/24/112
f 290/24/33 500/24/33 291/24/33
f 291/24/33 500/24/33 501/24/33
f 291/24/111 501/24/111 293/24/111
f 293/24/111 501/24/111 502/24/111
f 293/24/110 502/24/110 295/24/110
f 295/24/110 502/24/110 503/24/110
f 295/24/109 503/24/109 297/24/109
f 297/24/109 503/24/109 504/24/109
f 297/24/106 504/24/106 299/24/106
f 299/24/106 504/24/106 505/24/106
f 299/24/107 505/24/107 301/24/107
f 301/24/107 505/24/107 506/24/107
f 301/24/192 506/24/192 302/24/192
f 302/24/192 506/24/192 507/24/192
f 302/24/14 507/24/14 278/24/14
f 278/24/14 507/24/14 508/24/14
f 278/24/103 508/24/103 280/24/103
f 280/24/103 508/24/103 509/24/103
f 280/24/102 509/24/102 282/24/102
f 282/24/102 509/24/102 510/24/102
f 282/24/101 510/24/101 284/24/101
f 284/24/101 510/24/101 497/24/101
f 271/24/106 511/24/106 273/24/106
f 273/24/106 511/24/106 512/24/106
f 273/24/107 512/24/107 275/24/107
f 275/24/107 512/24/107 513/24/107
f 275/24/192 513/24/192 276/24/192
f 276/24/192 513/24/192 514/24/192
f 276/24/14 514/24/14 252/24/14
f 252/24/14 514/24/14 515/24/14
f 252/24/103 515/24/103 254/24/103
f 254/24/103 515/24/103 516/24/103
f 254/24/102 516/24/102 256/24/102
f 256/24/102 516/24/102 517/24/102
f 256/24/101 517/24/101 258/24/101
f 258/24/101 517/24/101 518/24/101
f 258/24/114 518/24/114 260/24/114
f 260/24/114 518/24/114 519/24/114
f 260/24/113 519/24/113 262/24/113
f 262/24/113 519/24/113 520/24/113
f 262/24/112 520/24/112 264/24/112
f 264/24/112 520/24/112 521/24/112
f 264/24/33 521/24/33 265/24/33
f 265/24/33 521/24/33 522/24/33
f 265/24/111 522/24/111 267/24/111
f 267/24/111 522/24/111 523/24/111
f 267/24/110 523/24/110 269/24/110
f 269/24/110 523/24/110 524/24/110
f 269/24/109 524/24/109 271/24/109
f 271/24/109 524/24/109 511/24/109
f 472/24/114 525/24/114 473/24/114
f 473/24/114 525/24/114 526/24/114
f 473/24/113 526/24/113 474/24/113
f 474/24/113 526/24/113 527/24/113
f 474/24/112 527/24/112 475/24/112
f 475/24/112 527/24/112 528/24/112
f 475/24/33 528/24/33 476/24/33
f 476/24/33 528/24/33 529/24/33
f 476/24/111 529/24/111 477/24/111
f 477/24/111 529/24/111 530/24/111
f 477/24/110 530/24/110 478/24/110
f 478/24/110 530/24/110 531/24/110
f 478/24/109 531/24/109 479/24/109
f 479/24/109 531/24/109 532/24/109
f 479/24/106 532/24/106 480/24/106
f 480/24/106 532/24/106 533/24/106
f 480/24/107 533/24/107 481/24/107
f 481/24/107 533/24/107 534/24/107
f 481/24/192 534/24/192 482/24/192
f 482/24/192 534/24/192 535/24/192
f 482/24/14 535/24/14 469/24/14
f 469/24/14 535/24/14 536/24/14
f 469/24/103 536/24/103 470/24/103
f 470/24/103 536/24/103 537/24/103
f 470/24/102 537/24/102 471/24/102
f 471/24/102 537/24/102 538/24/102
f 471/24/101 538/24/101 472/24/101
f 472/24/101 538/24/101 525/24/101
f 539/24/193 50/24/193 49/24/193
f 48/24/193 47/24/193 208/24/193
f 208/24/193 47/24/193 49/24/193
f 208/24/193 49/24/193 52/24/193
f 539/24/193 49/24/193 540/24/193
f 540/24/193 49/24/193 47/24/193
f 540/24/193 47/24/193 46/24/193
f 7/111/194 6/112/194 541/113/194
f 186/114/194 12/115/194 7/111/194
f 7/111/194 541/113/194 186/114/194
f 186/114/195 541/113/195 542/116/195
f 186/114/195 542/116/195 188/117/195
f 188/117/196 542/116/196 181/118/196
f 181/118/196 542/116/196 543/119/196
f 181/118/197 543/119/197 180/120/197
f 544/121/198 14/20/198 13/19/198
f 543/119/197 545/122/197 180/120/197
f 180/120/199 545/122/199 544/121/199
f 180/120/199 544/121/199 178/123/199
f 178/123/198 544/121/198 13/19/198
f 178/123/198 13/19/198 17/23/198
f 546/24/172 539/24/172 540/24/172
f 66/24/172 65/24/172 547/24/172
f 39/24/172 548/24/172 44/24/172
f 549/24/172 550/24/172 551/24/172
f 529/24/172 528/24/172 552/24/172
f 538/24/172 537/24/172 553/24/172
f 553/24/172 537/24/172 536/24/172
f 553/24/172 536/24/172 9/24/172
f 536/24/172 535/24/172 9/24/172
f 9/24/172 535/24/172 534/24/172
f 9/24/172 534/24/172 5/24/172
f 530/24/172 541/24/172 531/24/172
f 531/24/172 541/24/172 6/24/172
f 531/24/172 6/24/172 532/24/172
f 532/24/172 6/24/172 5/24/172
f 532/24/172 5/24/172 533/24/172
f 533/24/172 5/24/172 534/24/172
f 528/24/172 527/24/172 552/24/172
f 552/24/172 527/24/172 526/24/172
f 552/24/172 526/24/172 553/24/172
f 553/24/172 526/24/172 525/24/172
f 553/24/172 525/24/172 538/24/172
f 530/24/172 529/24/172 541/24/172
f 541/24/172 529/24/172 552/24/172
f 541/24/172 552/24/172 542/24/172
f 542/24/172 552/24/172 543/24/172
f 543/24/172 552/24/172 545/24/172
f 545/24/172 552/24/172 554/24/172
f 545/24/172 554/24/172 544/24/172
f 555/24/172 509/24/172 554/24/172
f 554/24/172 509/24/172 508/24/172
f 554/24/172 508/24/172 544/24/172
f 544/24/172 508/24/172 507/24/172
f 544/24/172 507/24/172 14/24/172
f 502/24/172 21/24/172 503/24/172
f 503/24/172 21/24/172 15/24/172
f 507/24/172 506/24/172 14/24/172
f 14/24/172 506/24/172 505/24/172
f 14/24/172 505/24/172 15/24/172
f 15/24/172 505/24/172 504/24/172
f 15/24/172 504/24/172 503/24/172
f 502/24/172 501/24/172 21/24/172
f 21/24/172 501/24/172 500/24/172
f 21/24/172 500/24/172 556/24/172
f 556/24/172 500/24/172 499/24/172
f 556/24/172 499/24/172 498/24/172
f 498/24/172 497/24/172 555/24/172
f 555/24/172 497/24/172 510/24/172
f 555/24/172 510/24/172 509/24/172
f 26/24/172 19/24/172 556/24/172
f 556/24/172 19/24/172 18/24/172
f 556/24/172 18/24/172 21/24/172
f 34/24/172 27/24/172 551/24/172
f 551/24/172 27/24/172 26/24/172
f 551/24/172 26/24/172 549/24/172
f 557/24/172 31/24/172 34/24/172
f 38/24/172 37/24/172 558/24/172
f 558/24/172 37/24/172 32/24/172
f 558/24/172 32/24/172 31/24/172
f 524/24/172 523/24/172 558/24/172
f 558/24/172 523/24/172 522/24/172
f 558/24/172 522/24/172 38/24/172
f 522/24/172 521/24/172 38/24/172
f 38/24/172 521/24/172 520/24/172
f 38/24/172 520/24/172 39/24/172
f 524/24/172 558/24/172 511/24/172
f 511/24/172 558/24/172 559/24/172
f 511/24/172 559/24/172 512/24/172
f 520/24/172 519/24/172 39/24/172
f 39/24/172 519/24/172 518/24/172
f 39/24/172 518/24/172 548/24/172
f 53/24/172 51/24/172 546/24/172
f 546/24/172 51/24/172 50/24/172
f 546/24/172 50/24/172 539/24/172
f 494/24/172 493/24/172 546/24/172
f 485/24/172 560/24/172 486/24/172
f 486/24/172 560/24/172 57/24/172
f 486/24/172 57/24/172 487/24/172
f 485/24/172 484/24/172 560/24/172
f 560/24/172 484/24/172 483/24/172
f 560/24/172 483/24/172 561/24/172
f 561/24/172 483/24/172 496/24/172
f 561/24/172 496/24/172 495/24/172
f 53/24/172 489/24/172 57/24/172
f 57/24/172 489/24/172 488/24/172
f 57/24/172 488/24/172 487/24/172
f 493/24/172 492/24/172 546/24/172
f 546/24/172 492/24/172 491/24/172
f 546/24/172 491/24/172 53/24/172
f 53/24/172 491/24/172 490/24/172
f 53/24/172 490/24/172 489/24/172
f 65/24/172 60/24/172 560/24/172
f 560/24/172 60/24/172 59/24/172
f 560/24/172 59/24/172 57/24/172
f 66/24/172 547/24/172 71/24/172
f 9/24/172 3/24/172 553/24/172
f 553/24/172 3/24/172 2/24/172
f 553/24/172 2/24/172 70/24/172
f 518/24/172 517/24/172 548/24/172
f 548/24/172 517/24/172 516/24/172
f 548/24/172 516/24/172 562/24/172
f 562/24/172 516/24/172 515/24/172
f 563/24/172 514/24/172 559/24/172
f 559/24/172 514/24/172 513/24/172
f 559/24/172 513/24/172 512/24/172
f 564/24/172 565/24/172 556/24/172
f 556/24/172 565/24/172 566/24/172
f 556/24/172 566/24/172 26/24/172
f 26/24/172 566/24/172 567/24/172
f 26/24/172 567/24/172 549/24/172
f 568/24/172 569/24/172 570/24/172
f 570/24/172 569/24/172 571/24/172
f 498/24/172 555/24/172 556/24/172
f 556/24/172 555/24/172 572/24/172
f 556/24/172 572/24/172 564/24/172
f 550/24/172 573/24/172 551/24/172
f 551/24/172 573/24/172 574/24/172
f 551/24/172 574/24/172 570/24/172
f 570/24/172 574/24/172 575/24/172
f 570/24/172 575/24/172 568/24/172
f 571/24/172 576/24/172 555/24/172
f 555/24/172 576/24/172 577/24/172
f 555/24/172 577/24/172 572/24/172
f 148/24/172 146/24/172 561/24/172
f 136/24/172 65/24/172 138/24/172
f 138/24/172 65/24/172 560/24/172
f 138/24/172 560/24/172 140/24/172
f 140/24/172 560/24/172 142/24/172
f 561/24/172 146/24/172 560/24/172
f 560/24/172 146/24/172 144/24/172
f 560/24/172 144/24/172 142/24/172
f 136/24/172 134/24/172 65/24/172
f 65/24/172 134/24/172 132/24/172
f 65/24/172 132/24/172 547/24/172
f 547/24/172 132/24/172 130/24/172
f 547/24/172 130/24/172 128/24/172
f 128/24/172 126/24/172 547/24/172
f 547/24/172 126/24/172 154/24/172
f 547/24/172 154/24/172 578/24/172
f 578/24/172 154/24/172 152/24/172
f 578/24/172 152/24/172 150/24/172
f 579/24/172 103/24/172 105/24/172
f 105/24/172 107/24/172 579/24/172
f 579/24/172 107/24/172 109/24/172
f 579/24/172 109/24/172 111/24/172
f 113/24/172 115/24/172 580/24/172
f 578/24/172 77/24/172 79/24/172
f 115/24/172 117/24/172 580/24/172
f 580/24/172 117/24/172 119/24/172
f 580/24/172 119/24/172 121/24/172
f 79/24/172 81/24/172 578/24/172
f 578/24/172 81/24/172 83/24/172
f 578/24/172 83/24/172 85/24/172
f 87/24/172 89/24/172 581/24/172
f 121/24/172 123/24/172 580/24/172
f 580/24/172 123/24/172 73/24/172
f 580/24/172 73/24/172 578/24/172
f 578/24/172 73/24/172 75/24/172
f 578/24/172 75/24/172 77/24/172
f 71/24/172 547/24/172 582/24/172
f 582/24/172 547/24/172 578/24/172
f 582/24/172 578/24/172 581/24/172
f 581/24/172 578/24/172 85/24/172
f 581/24/172 85/24/172 87/24/172
f 89/24/172 91/24/172 581/24/172
f 581/24/172 91/24/172 93/24/172
f 581/24/172 93/24/172 95/24/172
f 95/24/172 97/24/172 581/24/172
f 581/24/172 97/24/172 99/24/172
f 581/24/172 99/24/172 579/24/172
f 579/24/172 99/24/172 101/24/172
f 579/24/172 101/24/172 103/24/172
f 561/24/172 562/24/172 563/24/172
f 563/24/172 562/24/172 515/24/172
f 563/24/172 515/24/172 514/24/172
f 495/24/172 494/24/172 561/24/172
f 561/24/172 494/24/172 546/24/172
f 561/24/172 546/24/172 562/24/172
f 562/24/172 546/24/172 540/24/172
f 562/24/172 540/24/172 548/24/172
f 548/24/172 540/24/172 46/24/172
f 548/24/172 46/24/172 44/24/172
f 571/24/172 555/24/172 570/24/172
f 570/24/172 555/24/172 554/24/172
f 570/24/172 554/24/172 579/24/172
f 579/24/172 554/24/172 552/24/172
f 579/24/172 552/24/172 581/24/172
f 581/24/172 552/24/172 553/24/172
f 581/24/172 553/24/172 582/24/172
f 582/24/172 553/24/172 70/24/172
f 582/24/172 70/24/172 71/24/172
f 34/24/172 551/24/172 557/24/172
f 557/24/172 551/24/172 570/24/172
f 557/24/172 570/24/172 583/24/172
f 583/24/172 570/24/172 579/24/172
f 583/24/172 579/24/172 580/24/172
f 580/24/172 579/24/172 111/24/172
f 580/24/172 111/24/172 113/24/172
f 31/24/172 557/24/172 558/24/172
f 558/24/172 557/24/172 583/24/172
f 558/24/172 583/24/172 559/24/172
f 559/24/172 583/24/172 580/24/172
f 559/24/172 580/24/172 563/24/172
f 563/24/172 580/24/172 578/24/172
f 563/24/172 578/24/172 561/24/172
f 561/24/172 578/24/172 150/24/172
f 561/24/172 150/24/172 148/24/172
f 584/24/59 564/24/59 585/24/59
f 585/24/200 564/24/200 572/24/200
f 585/24/61 572/24/61 586/24/61
f 586/24/62 572/24/62 577/24/62
f 586/24/63 577/24/63 587/24/63
f 587/24/63 577/24/63 576/24/63
f 587/24/64 576/24/64 588/24/64
f 588/24/64 576/24/64 571/24/64
f 588/24/65 571/24/65 589/24/65
f 589/24/65 571/24/65 569/24/65
f 589/24/67 569/24/67 590/24/67
f 590/24/67 569/24/67 568/24/67
f 590/24/68 568/24/68 591/24/68
f 591/24/69 568/24/69 575/24/69
f 591/24/71 575/24/71 592/24/71
f 592/24/71 575/24/71 574/24/71
f 592/24/73 574/24/73 593/24/73
f 593/24/72 574/24/72 573/24/72
f 593/24/75 573/24/75 594/24/75
f 594/24/75 573/24/75 550/24/75
f 594/24/76 550/24/76 595/24/76
f 595/24/77 550/24/77 549/24/77
f 595/24/78 549/24/78 596/24/78
f 596/24/78 549/24/78 567/24/78
f 596/24/79 567/24/79 597/24/79
f 597/24/80 567/24/80 566/24/80
f 597/24/201 566/24/201 598/24/201
f 598/24/81 566/24/81 565/24/81
f 598/24/82 565/24/82 584/24/82
f 584/24/82 565/24/82 564/24/82
f 592/24/101 599/24/101 591/24/101
f 591/24/101 599/24/101 600/24/101
f 591/24/102 600/24/102 590/24/102
f 590/24/102 600/24/102 601/24/102
f 590/24/103 601/24/103 589/24/103
f 589/24/103 601/24/103 602/24/103
f 589/24/14 602/24/14 588/24/14
f 588/24/14 602/24/14 603/24/14
f 588/24/104 603/24/104 587/24/104
f 587/24/105 603/24/105 604/24/105
f 605/24/106 584/24/106 606/24/106
f 606/24/106 584/24/106 607/24/106
f 606/24/107 607/24/107 604/24/107
f 604/24/107 607/24/107 608/24/107
f 604/24/108 608/24/108 587/24/108
f 584/24/109 605/24/109 598/24/109
f 598/24/109 605/24/109 609/24/109
f 598/24/110 609/24/110 597/24/110
f 597/24/110 609/24/110 610/24/110
f 597/24/111 610/24/111 596/24/111
f 596/24/111 610/24/111 611/24/111
f 596/24/33 611/24/33 595/24/33
f 595/24/33 611/24/33 612/24/33
f 595/24/112 612/24/112 594/24/112
f 594/24/112 612/24/112 613/24/112
f 594/24/113 613/24/113 593/24/113
f 593/24/113 613/24/113 614/24/113
f 593/24/114 614/24/114 592/24/114
f 592/24/114 614/24/114 599/24/114
f 609/24/172 599/24/172 614/24/172
f 604/24/172 603/24/172 606/24/172
f 606/24/172 603/24/172 602/24/172
f 609/24/172 605/24/172 599/24/172
f 599/24/172 605/24/172 606/24/172
f 599/24/172 606/24/172 600/24/172
f 600/24/172 606/24/172 602/24/172
f 600/24/172 602/24/172 601/24/172
f 611/24/172 610/24/172 612/24/172
f 612/24/172 610/24/172 609/24/172
f 612/24/172 609/24/172 613/24/172
f 613/24/172 609/24/172 614/24/172
