# Blender 4.4.3
# www.blender.org
mtllib right_arm_base_link.mtl
o right_arm_base_link
v -0.046137 0.059708 0.000500
v -0.046137 0.059708 -0.000000
v -0.050933 0.058035 -0.000000
v -0.046138 0.059708 0.011000
v -0.058036 0.050933 -0.000000
v -0.059708 0.046137 -0.000000
v -0.059708 0.046137 0.000500
v -0.050933 0.058035 0.011000
v -0.055021 0.055021 -0.000000
v -0.055021 0.055021 0.011000
v -0.058036 0.050933 0.011000
v -0.059708 0.046137 0.011000
v -0.059708 -0.046137 0.000500
v -0.059708 -0.046137 -0.000000
v -0.058035 -0.050933 -0.000000
v -0.058035 -0.050933 0.011000
v -0.059708 -0.046137 0.011000
v -0.050933 -0.058036 -0.000000
v -0.046137 -0.059708 -0.000000
v -0.046137 -0.059708 0.000500
v -0.055021 -0.055021 -0.000000
v -0.055021 -0.055021 0.011000
v -0.050933 -0.058036 0.011000
v -0.046137 -0.059708 0.011000
v -0.027784 -0.062453 0.011000
v -0.027784 -0.062453 -0.000000
v -0.009278 -0.063830 -0.000000
v 0.009279 -0.063830 0.011000
v 0.000000 -0.064002 0.011000
v -0.009278 -0.063830 0.011000
v 0.027785 -0.062453 0.000000
v 0.046137 -0.059708 0.000000
v 0.046137 -0.059708 0.000500
v 0.009279 -0.063830 -0.000000
v 0.027785 -0.062453 0.011000
v 0.046137 -0.059708 0.011000
v 0.050623 -0.058195 0.000000
v 0.054517 -0.055505 0.000000
v 0.057518 -0.051845 0.000000
v 0.057518 -0.051845 0.000500
v 0.050622 -0.058195 0.011000
v 0.054517 -0.055505 0.011000
v 0.057518 -0.051845 0.011000
v 0.059150 -0.048093 0.000000
v 0.059150 -0.048093 0.011000
v 0.059708 -0.044040 0.000000
v 0.059708 -0.044040 0.000500
v 0.059708 -0.044040 0.011000
v 0.059708 0.044041 0.000500
v 0.059708 0.044041 0.000000
v 0.059150 0.048094 0.000000
v 0.059708 0.044041 0.011000
v 0.057518 0.051845 0.000000
v 0.057518 0.051845 0.000500
v 0.059150 0.048093 0.011000
v 0.057518 0.051845 0.011000
v 0.054516 0.055505 0.000000
v 0.054516 0.055505 0.011000
v 0.050622 0.058195 0.000000
v 0.046137 0.059708 0.000000
v 0.046137 0.059708 0.000500
v 0.050622 0.058195 0.011000
v 0.046137 0.059708 0.011000
v 0.027784 0.062453 0.011000
v 0.027784 0.062454 0.000000
v 0.009278 0.063830 0.000000
v -0.009279 0.063830 0.011000
v -0.000000 0.064002 0.011000
v 0.009278 0.063830 0.011000
v -0.027785 0.062453 -0.000000
v -0.009279 0.063830 0.000000
v -0.027785 0.062453 0.011000
v 0.025000 0.000000 0.000000
v 0.025000 -0.000000 0.073500
v 0.024852 0.002713 0.000000
v 0.024852 0.002713 0.073500
v 0.023267 0.009147 0.000000
v 0.023266 0.009147 0.073500
v 0.020046 0.014938 0.000000
v 0.020046 0.014938 0.073500
v 0.015418 0.019680 0.000000
v 0.015418 0.019680 0.073500
v 0.009706 0.023039 0.000000
v 0.009706 0.023039 0.073500
v 0.003313 0.024780 0.000000
v 0.003313 0.024779 0.073500
v -0.003313 0.024780 0.000000
v -0.003313 0.024779 0.073500
v -0.009706 0.023039 -0.000000
v -0.009707 0.023039 0.073500
v -0.015418 0.019680 -0.000000
v -0.015418 0.019679 0.073500
v -0.020046 0.014938 -0.000000
v -0.020047 0.014938 0.073500
v -0.023267 0.009147 -0.000000
v -0.023267 0.009147 0.073500
v -0.024852 0.002713 -0.000000
v -0.024853 0.002713 0.073500
v -0.025000 -0.000000 -0.000000
v -0.025000 -0.000000 0.073500
v -0.024852 -0.002713 -0.000000
v -0.024853 -0.002713 0.073500
v -0.023267 -0.009147 -0.000000
v -0.023267 -0.009147 0.073500
v -0.020046 -0.014938 -0.000000
v -0.020047 -0.014938 0.073500
v -0.015418 -0.019680 -0.000000
v -0.015418 -0.019680 0.073500
v -0.009706 -0.023039 -0.000000
v -0.009707 -0.023039 0.073500
v -0.003313 -0.024779 -0.000000
v -0.003313 -0.024780 0.073500
v 0.003313 -0.024779 -0.000000
v 0.003313 -0.024780 0.073500
v 0.009706 -0.023039 0.000000
v 0.009706 -0.023039 0.073500
v 0.015418 -0.019680 0.000000
v 0.015418 -0.019680 0.073500
v 0.020046 -0.014938 0.000000
v 0.020046 -0.014938 0.073500
v 0.023267 -0.009147 0.000000
v 0.023266 -0.009147 0.073500
v 0.024852 -0.002713 0.000000
v 0.024852 -0.002713 0.073500
v 0.028000 0.051962 0.000200
v 0.027800 0.051962 0.000000
v 0.028112 0.052622 0.000200
v 0.027923 0.052688 0.000000
v 0.028651 0.053438 0.000200
v 0.028516 0.053585 0.000000
v 0.029000 0.053694 0.000200
v 0.028900 0.053867 0.000000
v 0.029511 0.053901 0.000200
v 0.029462 0.054095 0.000000
v 0.030489 0.053901 0.000200
v 0.030537 0.054095 0.000000
v 0.031349 0.053438 0.000200
v 0.031484 0.053585 0.000000
v 0.031888 0.052622 0.000200
v 0.032076 0.052688 0.000000
v 0.032000 0.051962 0.000200
v 0.032200 0.051962 0.000000
v 0.031888 0.051301 0.000200
v 0.032076 0.051235 0.000000
v 0.031349 0.050485 0.000200
v 0.031484 0.050338 0.000000
v 0.030489 0.050022 0.000200
v 0.030537 0.049828 0.000000
v 0.029511 0.050022 0.000200
v 0.029462 0.049828 0.000000
v 0.028651 0.050485 0.000200
v 0.028516 0.050338 0.000000
v 0.028112 0.051301 0.000200
v 0.027923 0.051235 0.000000
v -0.019666 -0.054032 0.011000
v -0.009985 -0.056626 0.011000
v 0.000000 -0.057500 0.011000
v 0.009985 -0.056626 0.011000
v 0.019666 -0.054032 0.011000
v 0.028750 -0.049796 0.011000
v -0.028750 -0.049797 0.011000
v -0.045020 -0.052875 0.011000
v -0.047125 -0.054980 0.011000
v -0.054032 -0.019666 0.011000
v -0.051279 -0.044394 0.011000
v -0.049796 -0.028750 0.011000
v -0.048720 -0.044394 0.011000
v -0.044048 -0.036960 0.011000
v -0.046415 -0.045505 0.011000
v -0.036960 -0.044048 0.011000
v -0.044819 -0.047505 0.011000
v -0.044250 -0.050000 0.011000
v -0.050000 -0.055750 0.011000
v -0.052875 -0.054980 0.011000
v -0.054980 -0.052875 0.011000
v -0.055750 -0.050000 0.011000
v -0.055181 -0.047505 0.011000
v -0.062453 -0.027785 0.011000
v -0.053585 -0.045505 0.011000
v -0.063830 -0.009279 0.011000
v -0.064002 -0.000000 0.011000
v -0.050303 0.027855 0.011000
v -0.050000 0.044250 0.011000
v -0.052875 0.045020 0.011000
v -0.054263 0.019021 0.011000
v -0.062454 0.027784 0.011000
v -0.056685 0.009647 0.011000
v -0.063830 0.009278 0.011000
v -0.057500 -0.000000 0.011000
v -0.056626 -0.009985 0.011000
v -0.054980 0.047125 0.011000
v -0.055750 0.050000 0.011000
v -0.055181 0.052495 0.011000
v -0.053585 0.054495 0.011000
v -0.051280 0.055606 0.011000
v -0.048721 0.055606 0.011000
v -0.046415 0.054495 0.011000
v -0.044820 0.052495 0.011000
v -0.047125 0.045020 0.011000
v -0.044916 0.035900 0.011000
v -0.045020 0.047125 0.011000
v -0.038495 0.042713 0.011000
v -0.044250 0.050000 0.011000
v -0.031053 0.048394 0.011000
v -0.022788 0.052792 0.011000
v 0.056685 0.009647 0.011000
v 0.057500 0.000000 0.011000
v 0.059708 0.000000 0.011000
v 0.056626 -0.009985 0.011000
v 0.051280 -0.044394 0.011000
v 0.054032 -0.019666 0.011000
v 0.048721 -0.044394 0.011000
v 0.049796 -0.028750 0.011000
v 0.046415 -0.045504 0.011000
v 0.044048 -0.036960 0.011000
v 0.044819 -0.047505 0.011000
v 0.036960 -0.044047 0.011000
v 0.044250 -0.050000 0.011000
v 0.045020 -0.052875 0.011000
v 0.047125 -0.054980 0.011000
v 0.050000 -0.055750 0.011000
v 0.052875 -0.054980 0.011000
v 0.054980 -0.052875 0.011000
v 0.055750 -0.050000 0.011000
v 0.055181 -0.047505 0.011000
v 0.053585 -0.045504 0.011000
v 0.054263 0.019021 0.011000
v 0.052875 0.045020 0.011000
v 0.050302 0.027855 0.011000
v 0.050000 0.044250 0.011000
v 0.044916 0.035900 0.011000
v 0.047125 0.045020 0.011000
v 0.038495 0.042713 0.011000
v 0.045020 0.047125 0.011000
v 0.031053 0.048394 0.011000
v 0.013919 0.055790 0.011000
v 0.022788 0.052792 0.011000
v 0.054980 0.047125 0.011000
v 0.055750 0.050000 0.011000
v 0.055180 0.052495 0.011000
v 0.053585 0.054496 0.011000
v 0.051279 0.055606 0.011000
v 0.048720 0.055606 0.011000
v 0.046415 0.054496 0.011000
v 0.044819 0.052495 0.011000
v 0.044250 0.050000 0.011000
v -0.013919 0.055790 0.011000
v -0.004681 0.057309 0.011000
v -0.000000 0.057500 0.011000
v 0.004681 0.057309 0.011000
v 0.050000 -0.044750 0.004000
v 0.050770 -0.046945 0.004000
v 0.052625 -0.045453 0.004000
v 0.052125 -0.047675 0.004000
v 0.054547 -0.047375 0.004000
v 0.052973 -0.048959 0.004000
v 0.055250 -0.050000 0.004000
v 0.053150 -0.050000 0.004000
v 0.054547 -0.052625 0.004000
v 0.052973 -0.051040 0.004000
v 0.052625 -0.054547 0.004000
v 0.052125 -0.052325 0.004000
v 0.050000 -0.055250 0.004000
v 0.050770 -0.053054 0.004000
v 0.049230 -0.053054 0.004000
v 0.047375 -0.054547 0.004000
v 0.047875 -0.052325 0.004000
v 0.045453 -0.052625 0.004000
v 0.047027 -0.051040 0.004000
v 0.044750 -0.050000 0.004000
v 0.046850 -0.050000 0.004000
v 0.045453 -0.047375 0.004000
v 0.047027 -0.048960 0.004000
v 0.047375 -0.045453 0.004000
v 0.047875 -0.047675 0.004000
v 0.049230 -0.046945 0.004000
v -0.050000 -0.044750 0.004000
v -0.049230 -0.046946 0.004000
v -0.047375 -0.045453 0.004000
v -0.047875 -0.047675 0.004000
v -0.045453 -0.047375 0.004000
v -0.047027 -0.048960 0.004000
v -0.044750 -0.050000 0.004000
v -0.046850 -0.050000 0.004000
v -0.045453 -0.052625 0.004000
v -0.047027 -0.051040 0.004000
v -0.047375 -0.054547 0.004000
v -0.047875 -0.052325 0.004000
v -0.050000 -0.055250 0.004000
v -0.049230 -0.053055 0.004000
v -0.050770 -0.053055 0.004000
v -0.052625 -0.054547 0.004000
v -0.052125 -0.052325 0.004000
v -0.054547 -0.052625 0.004000
v -0.052973 -0.051040 0.004000
v -0.055250 -0.050000 0.004000
v -0.053150 -0.050000 0.004000
v -0.054547 -0.047375 0.004000
v -0.052973 -0.048960 0.004000
v -0.052625 -0.045453 0.004000
v -0.052125 -0.047675 0.004000
v -0.050770 -0.046946 0.004000
v 0.050000 0.055250 0.004000
v 0.050770 0.053055 0.004000
v 0.052625 0.054547 0.004000
v 0.052125 0.052325 0.004000
v 0.054547 0.052625 0.004000
v 0.052973 0.051041 0.004000
v 0.055250 0.050000 0.004000
v 0.053150 0.050000 0.004000
v 0.054547 0.047375 0.004000
v 0.052973 0.048960 0.004000
v 0.052625 0.045453 0.004000
v 0.052125 0.047675 0.004000
v 0.050000 0.044750 0.004000
v 0.050770 0.046946 0.004000
v 0.049230 0.046946 0.004000
v 0.047375 0.045453 0.004000
v 0.047875 0.047675 0.004000
v 0.045453 0.047375 0.004000
v 0.047027 0.048960 0.004000
v 0.044750 0.050000 0.004000
v 0.046850 0.050000 0.004000
v 0.045453 0.052625 0.004000
v 0.047027 0.051040 0.004000
v 0.047375 0.054547 0.004000
v 0.047875 0.052325 0.004000
v 0.049230 0.053055 0.004000
v -0.055250 0.050000 0.010500
v -0.054730 0.052278 0.010500
v -0.054547 0.052625 0.010500
v -0.053273 0.054105 0.010500
v -0.052625 0.054547 0.010500
v -0.051168 0.055118 0.010500
v -0.050000 0.055250 0.010500
v -0.048832 0.055118 0.010500
v -0.047375 0.054547 0.010500
v -0.046727 0.054105 0.010500
v -0.044750 0.050000 0.010500
v -0.045270 0.052278 0.010500
v -0.045454 0.052625 0.010500
v 0.049796 -0.028750 0.073500
v 0.054032 -0.019666 0.073500
v 0.056626 -0.009985 0.073500
v 0.057500 0.000000 0.073500
v 0.056685 0.009647 0.073500
v 0.028750 -0.049796 0.073500
v 0.036960 -0.044048 0.073500
v 0.044047 -0.036960 0.073500
v -0.000000 -0.057500 0.073500
v 0.009985 -0.056627 0.073500
v 0.019666 -0.054032 0.073500
v -0.028750 -0.049797 0.073500
v -0.019666 -0.054032 0.073500
v -0.009985 -0.056627 0.073500
v -0.049797 -0.028750 0.073500
v -0.044048 -0.036960 0.073500
v -0.036961 -0.044048 0.073500
v 0.044916 0.035900 0.073500
v 0.050302 0.027855 0.073500
v 0.054262 0.019021 0.073500
v -0.044916 0.035900 0.073500
v -0.050303 0.027855 0.073500
v -0.054263 0.019021 0.073500
v -0.056685 0.009647 0.073500
v -0.057500 -0.000000 0.073500
v -0.056627 -0.009985 0.073500
v -0.054033 -0.019666 0.073500
v 0.032000 0.051962 0.003200
v 0.031888 0.052622 0.003200
v 0.031349 0.053438 0.003200
v 0.030489 0.053901 0.003200
v 0.029511 0.053901 0.003200
v 0.028651 0.053438 0.003200
v 0.028000 0.051962 0.003200
v 0.028112 0.052622 0.003200
v 0.028112 0.052622 0.000200
v 0.028651 0.053438 0.000200
v 0.028112 0.051301 0.003200
v 0.028651 0.050485 0.003200
v 0.029511 0.050022 0.003200
v 0.030489 0.050022 0.003200
v 0.031349 0.050485 0.003200
v 0.031888 0.051301 0.003200
v -0.038495 0.042713 0.073500
v -0.031053 0.048394 0.073500
v -0.022789 0.052791 0.073500
v -0.013920 0.055790 0.073500
v -0.004682 0.057309 0.073500
v 0.038494 0.042713 0.073500
v 0.044916 0.035900 0.012000
v 0.004681 0.057309 0.073500
v 0.013919 0.055790 0.073500
v 0.022788 0.052792 0.073500
v 0.031053 0.048394 0.073500
v 0.044750 0.050000 0.010500
v 0.045453 0.047375 0.010500
v 0.045020 0.047125 0.011000
v 0.047375 0.045453 0.010500
v 0.050000 0.044750 0.010500
v 0.052625 0.045453 0.010500
v 0.054546 0.047375 0.010500
v 0.055250 0.050000 0.010500
v -0.055250 -0.050000 0.010500
v -0.054547 -0.052625 0.010500
v -0.052625 -0.054547 0.010500
v -0.050000 -0.055250 0.010500
v -0.047375 -0.054547 0.010500
v -0.045453 -0.052625 0.010500
v -0.044750 -0.050000 0.010500
v 0.044750 -0.050000 0.010500
v 0.045453 -0.052625 0.010500
v 0.045020 -0.052875 0.011000
v 0.047375 -0.054547 0.010500
v 0.050000 -0.055250 0.010500
v 0.052625 -0.054547 0.010500
v 0.054547 -0.052625 0.010500
v 0.055250 -0.050000 0.010500
v 0.045270 -0.047722 0.010500
v 0.045453 -0.047375 0.010500
v 0.046727 -0.045895 0.010500
v 0.047375 -0.045453 0.010500
v 0.048832 -0.044882 0.010500
v 0.050000 -0.044750 0.010500
v 0.051168 -0.044882 0.010500
v 0.052625 -0.045453 0.010500
v 0.053273 -0.045895 0.010500
v 0.054547 -0.047375 0.010500
v 0.054730 -0.047722 0.010500
v -0.054730 -0.047722 0.010500
v -0.054547 -0.047375 0.010500
v -0.053273 -0.045895 0.010500
v -0.052625 -0.045453 0.010500
v -0.051168 -0.044882 0.010500
v -0.050000 -0.044750 0.010500
v -0.048832 -0.044882 0.010500
v -0.047375 -0.045453 0.010500
v -0.046727 -0.045895 0.010500
v -0.045453 -0.047375 0.010500
v -0.045270 -0.047722 0.010500
v 0.045270 0.052278 0.010500
v 0.045453 0.052625 0.010500
v 0.046727 0.054105 0.010500
v 0.047375 0.054547 0.010500
v 0.048832 0.055118 0.010500
v 0.050000 0.055250 0.010500
v 0.051168 0.055118 0.010500
v 0.052625 0.054547 0.010500
v 0.053273 0.054105 0.010500
v 0.054546 0.052625 0.010500
v 0.054730 0.052278 0.010500
v -0.054547 0.047375 0.010500
v -0.052625 0.045453 0.010500
v -0.050000 0.044750 0.010500
v -0.047375 0.045453 0.010500
v -0.045454 0.047375 0.010500
v -0.055250 0.050000 0.004000
v -0.054547 0.052625 0.004000
v -0.052625 0.054547 0.004000
v -0.050000 0.055250 0.004000
v -0.047375 0.054547 0.004000
v -0.045453 0.052625 0.004000
v -0.044750 0.050000 0.004000
v -0.045453 0.047375 0.004000
v -0.047375 0.045453 0.004000
v -0.050000 0.044750 0.004000
v -0.052625 0.045453 0.004000
v -0.054547 0.047375 0.004000
v -0.049230 0.053054 0.004000
v -0.047875 0.052325 0.004000
v -0.047027 0.051040 0.004000
v -0.046850 0.050000 0.004000
v -0.047027 0.048960 0.004000
v -0.047875 0.047675 0.004000
v -0.049230 0.046945 0.004000
v -0.050770 0.046945 0.004000
v -0.052125 0.047675 0.004000
v -0.052973 0.048960 0.004000
v -0.053150 0.050000 0.004000
v -0.052973 0.051040 0.004000
v -0.052125 0.052325 0.004000
v -0.050770 0.053054 0.004000
v 0.046850 0.050000 0.000000
v 0.047027 0.051040 0.000000
v 0.047875 0.052325 0.000000
v 0.049230 0.053055 0.000000
v 0.050770 0.053055 0.000000
v 0.052125 0.052325 0.000000
v 0.052973 0.051041 0.000000
v 0.053150 0.050000 0.000000
v 0.052973 0.048960 0.000000
v 0.052125 0.047675 0.000000
v 0.050770 0.046946 0.000000
v 0.049230 0.046946 0.000000
v 0.047875 0.047675 0.000000
v 0.047027 0.048960 0.000000
v -0.046850 -0.050000 -0.000000
v -0.047027 -0.051040 -0.000000
v -0.047875 -0.052325 -0.000000
v -0.049230 -0.053055 -0.000000
v -0.050770 -0.053055 -0.000000
v -0.052125 -0.052325 -0.000000
v -0.052973 -0.051040 -0.000000
v -0.053150 -0.050000 -0.000000
v -0.052973 -0.048960 -0.000000
v -0.052125 -0.047675 -0.000000
v -0.050770 -0.046946 -0.000000
v -0.049230 -0.046946 -0.000000
v -0.047875 -0.047675 -0.000000
v -0.047027 -0.048960 -0.000000
v 0.046850 -0.050000 0.000000
v 0.047027 -0.048960 0.000000
v 0.047875 -0.047675 0.000000
v 0.049230 -0.046945 0.000000
v 0.050770 -0.046945 0.000000
v 0.052125 -0.047675 0.000000
v 0.052973 -0.048959 0.000000
v 0.053150 -0.050000 0.000000
v 0.052973 -0.051040 0.000000
v 0.052125 -0.052325 0.000000
v 0.050770 -0.053054 0.000000
v 0.049230 -0.053054 0.000000
v 0.047875 -0.052325 0.000000
v 0.047027 -0.051040 0.000000
v -0.046850 0.050000 -0.000000
v -0.047027 0.048960 -0.000000
v -0.047875 0.047675 -0.000000
v -0.049230 0.046945 -0.000000
v -0.050770 0.046945 -0.000000
v -0.052125 0.047675 -0.000000
v -0.052973 0.048960 -0.000000
v -0.053150 0.050000 -0.000000
v -0.052973 0.051040 -0.000000
v -0.052125 0.052325 -0.000000
v -0.050770 0.053054 -0.000000
v -0.049230 0.053054 -0.000000
v -0.047875 0.052325 -0.000000
v -0.047027 0.051040 -0.000000
v 0.059708 0.035925 0.000000
v 0.059708 -0.035925 0.000000
v -0.062453 0.027784 -0.000000
v -0.063830 0.009278 -0.000000
v -0.064002 -0.000000 -0.000000
v -0.062453 -0.027785 -0.000000
v -0.063830 -0.009279 -0.000000
v 0.056429 0.035925 0.000000
v 0.026400 0.053656 0.000000
v 0.056429 -0.048306 0.000000
v -0.029462 -0.054095 -0.000000
v -0.028516 -0.053585 -0.000000
v -0.026400 -0.053656 -0.000000
v -0.039525 0.035925 -0.000000
v -0.039525 0.053656 -0.000000
v -0.039525 -0.035925 -0.000000
v -0.039525 -0.048306 -0.000000
v -0.039525 -0.053656 -0.000000
v 0.026400 -0.053656 0.000000
v 0.039525 -0.053656 0.000000
v 0.039525 -0.048306 0.000000
v 0.039525 0.053656 0.000000
v 0.039525 0.035925 0.000000
v 0.056429 -0.035925 0.000000
v 0.039525 -0.035925 0.000000
v -0.032200 -0.051962 -0.000000
v -0.032076 -0.052688 -0.000000
v -0.031484 -0.053585 -0.000000
v -0.030537 -0.054095 -0.000000
v -0.028516 -0.050338 -0.000000
v -0.029462 -0.049828 -0.000000
v -0.026400 -0.048306 -0.000000
v -0.030537 -0.049828 -0.000000
v -0.032076 -0.051235 -0.000000
v -0.027923 -0.052688 -0.000000
v -0.027800 -0.051962 -0.000000
v -0.027923 -0.051235 -0.000000
v -0.031100 -0.050056 -0.000000
v -0.031484 -0.050338 -0.000000
v 0.026400 0.035925 0.000000
v -0.026400 -0.035925 -0.000000
v 0.026400 -0.035925 0.000000
v -0.026400 0.035925 -0.000000
v -0.026400 0.053656 -0.000000
v 0.026400 -0.048306 0.000000
v -0.032000 -0.051962 0.000200
v -0.031888 -0.051301 0.000200
v -0.031349 -0.050485 0.000200
v -0.031000 -0.050230 0.000200
v -0.030489 -0.050022 0.000200
v -0.029511 -0.050022 0.000200
v -0.028651 -0.050485 0.000200
v -0.028112 -0.051301 0.000200
v -0.028000 -0.051962 0.000200
v -0.028112 -0.052622 0.000200
v -0.028651 -0.053438 0.000200
v -0.029511 -0.053901 0.000200
v -0.030489 -0.053901 0.000200
v -0.031349 -0.053438 0.000200
v -0.031888 -0.052622 0.000200
v -0.028000 -0.051962 0.003200
v -0.028112 -0.051301 0.003200
v -0.028651 -0.050485 0.003200
v -0.029511 -0.050022 0.003200
v -0.030489 -0.050022 0.003200
v -0.031349 -0.050485 0.003200
v -0.032000 -0.051962 0.003200
v -0.031888 -0.051301 0.003200
v -0.031888 -0.051301 0.000200
v -0.031349 -0.050485 0.000200
v -0.031888 -0.052622 0.003200
v -0.031349 -0.053438 0.003200
v -0.030489 -0.053901 0.003200
v -0.029511 -0.053901 0.003200
v -0.028651 -0.053438 0.003200
v -0.028112 -0.052622 0.003200
vn -0.3293 0.9442 -0.0000
vn -0.9442 0.3293 -0.0000
vn -0.5935 0.8048 -0.0000
vn -0.8048 0.5935 -0.0000
vn -0.9442 -0.3293 -0.0000
vn -0.3293 -0.9442 -0.0000
vn -0.8048 -0.5935 -0.0000
vn -0.5935 -0.8048 -0.0000
vn -0.0742 -0.9972 -0.0000
vn -0.1479 -0.9890 -0.0000
vn 0.0186 -0.9993 -0.0313
vn -0.0186 -0.9998 -0.0000
vn 0.1479 -0.9890 -0.0000
vn -0.0000 -1.0000 -0.0000
vn 0.0742 -0.9972 -0.0000
vn 0.3196 -0.9476 -0.0000
vn 0.7733 -0.6341 -0.0000
vn 0.5685 -0.8227 -0.0000
vn 0.5684 -0.8227 -0.0000
vn 0.9170 -0.3990 -0.0000
vn 0.9907 -0.1364 -0.0000
vn 0.9907 0.1364 -0.0000
vn 0.9170 0.3990 -0.0000
vn 0.7733 0.6341 -0.0000
vn 0.3196 0.9476 -0.0000
vn 0.7732 0.6341 -0.0000
vn 0.5684 0.8227 -0.0000
vn 0.0742 0.9972 -0.0000
vn 0.1479 0.9890 -0.0000
vn -0.0186 0.9993 -0.0313
vn 0.0186 0.9998 -0.0000
vn -0.1479 0.9890 -0.0000
vn -0.0000 1.0000 -0.0000
vn -0.0742 0.9972 -0.0000
vn -0.9985 -0.0543 -0.0000
vn -0.9709 -0.2393 -0.0000
vn -0.8740 -0.4860 -0.0000
vn -0.7156 -0.6985 -0.0000
vn -0.5070 -0.8620 -0.0000
vn -0.2627 -0.9649 -0.0000
vn 0.2627 -0.9649 -0.0000
vn 0.5070 -0.8620 -0.0000
vn 0.7156 -0.6985 -0.0000
vn 0.8740 -0.4860 -0.0000
vn 0.9709 -0.2393 -0.0000
vn 0.9985 -0.0543 -0.0000
vn 0.9985 0.0543 -0.0000
vn 0.9709 0.2393 -0.0000
vn 0.8740 0.4860 -0.0000
vn 0.7156 0.6985 -0.0000
vn 0.5070 0.8620 -0.0000
vn 0.2627 0.9649 -0.0000
vn -0.2627 0.9649 -0.0000
vn -0.5070 0.8620 -0.0000
vn -0.7156 0.6985 -0.0000
vn -0.8740 0.4860 -0.0000
vn -0.9709 0.2393 -0.0000
vn -0.9985 0.0543 -0.0000
vn 0.7020 -0.1193 -0.7021
vn 0.7021 -0.1193 -0.7020
vn 0.5992 -0.3955 -0.6961
vn 0.5991 -0.3955 -0.6961
vn 0.4190 -0.5722 -0.7050
vn 0.2670 -0.6584 -0.7037
vn -0.0000 -0.7179 -0.6961
vn -0.3402 -0.6322 -0.6961
vn -0.3402 -0.6322 -0.6962
vn -0.5991 -0.3955 -0.6961
vn -0.5991 -0.3955 -0.6962
vn -0.7020 -0.1193 -0.7021
vn -0.7021 -0.1193 -0.7021
vn -0.7020 0.1193 -0.7021
vn -0.5991 0.3955 -0.6962
vn -0.3402 0.6322 -0.6962
vn -0.3402 0.6322 -0.6961
vn -0.0000 0.7179 -0.6961
vn 0.3402 0.6322 -0.6961
vn 0.3402 0.6322 -0.6962
vn 0.5991 0.3955 -0.6962
vn 0.5991 0.3955 -0.6961
vn 0.7021 0.1193 -0.7021
vn -0.0000 -0.0000 1.0000
vn 0.6981 -0.1593 0.6981
vn 0.6254 -0.3305 0.7069
vn 0.6019 -0.4800 0.6382
vn 0.5407 -0.4653 0.7009
vn 0.3989 -0.5851 0.7061
vn 0.3486 -0.7239 0.5954
vn 0.2598 -0.6619 0.7031
vn 0.0794 -0.7049 0.7049
vn -0.0000 -0.8147 0.5798
vn -0.0794 -0.7049 0.7049
vn -0.3107 -0.6451 0.6981
vn -0.3124 -0.7960 0.5185
vn -0.3989 -0.5851 0.7061
vn -0.5598 -0.4464 0.6981
vn -0.6981 -0.1593 0.6981
vn -0.6254 -0.3305 0.7069
vn -0.5944 -0.5115 0.6205
vn -0.9859 -0.1675 -0.0000
vn -0.8346 -0.5509 -0.0000
vn -0.4739 -0.8806 -0.0000
vn 0.3758 -0.9267 -0.0000
vn 0.4738 -0.8804 -0.0199
vn 0.9859 -0.1675 -0.0000
vn 0.8346 -0.5509 -0.0000
vn 0.5908 -0.8068 -0.0000
vn 0.9859 0.1675 -0.0000
vn 0.8346 0.5509 -0.0000
vn 0.4739 0.8806 -0.0000
vn -0.4739 0.8806 -0.0000
vn -0.8346 0.5509 -0.0000
vn -0.9859 0.1675 -0.0000
vn -0.7277 0.6859 -0.0000
vn -0.6068 0.7949 -0.0000
vn -0.4697 0.8828 -0.0000
vn -0.3203 0.9473 -0.0000
vn -0.1623 0.9867 -0.0000
vn 0.7277 0.6859 -0.0000
vn -0.0407 0.9992 -0.0000
vn -0.0000 1.0000 0.0031
vn 0.0407 0.9992 -0.0000
vn 0.1623 0.9867 -0.0000
vn 0.3203 0.9473 -0.0000
vn 0.4697 0.8828 -0.0000
vn 0.6068 0.7949 -0.0000
vn -0.9965 0.0842 -0.0000
vn -0.9682 0.2502 -0.0000
vn -0.9125 0.4091 -0.0000
vn -0.8309 0.5564 -0.0000
vn 0.9962 -0.0872 -0.0000
vn 0.9659 -0.2588 -0.0000
vn 0.9063 -0.4226 -0.0000
vn 0.8192 -0.5736 -0.0000
vn 0.7071 -0.7071 -0.0000
vn 0.5736 -0.8192 -0.0000
vn 0.4226 -0.9063 -0.0000
vn 0.2588 -0.9659 -0.0000
vn 0.0872 -0.9962 -0.0000
vn -0.0872 -0.9962 -0.0000
vn -0.2588 -0.9659 -0.0000
vn -0.4226 -0.9063 -0.0000
vn -0.5736 -0.8192 -0.0000
vn -0.7071 -0.7071 -0.0000
vn -0.8192 -0.5736 -0.0000
vn -0.9063 -0.4226 -0.0000
vn -0.9659 -0.2588 -0.0000
vn -0.9962 -0.0872 -0.0000
vn 0.8309 0.5564 -0.0000
vn 0.9125 0.4091 -0.0000
vn 0.9682 0.2502 -0.0000
vn 0.9964 0.0842 -0.0000
vn 0.6947 0.1862 0.6948
vn 0.5086 0.5086 0.6947
vn 0.5086 0.5086 0.6948
vn 0.1861 0.6947 0.6948
vn 0.1862 0.6947 0.6948
vn -0.1862 0.6947 0.6947
vn -0.5086 0.5086 0.6947
vn -0.6948 0.1862 0.6947
vn -0.6947 0.1862 0.6947
vn 0.6947 0.1862 0.6947
vn 0.1862 0.6947 0.6947
vn -0.9659 0.2588 -0.0000
vn -0.7071 0.7071 -0.0000
vn -0.2588 0.9659 -0.0000
vn 0.2588 0.9659 -0.0000
vn 0.7071 0.7071 -0.0000
vn 0.9659 0.2588 -0.0000
vn -0.0000 -0.0000 -1.0000
vn 0.9749 -0.2225 -0.0000
vn 0.9658 -0.2588 0.0134
vn 0.8841 -0.4673 -0.0000
vn 0.7580 -0.6523 -0.0000
vn 0.7069 -0.7069 0.0224
vn 0.5633 -0.8262 -0.0000
vn 0.3653 -0.9309 -0.0000
vn 0.2587 -0.9656 0.0269
vn 0.1120 -0.9937 -0.0000
vn -0.1120 -0.9937 -0.0000
vn -0.2587 -0.9656 0.0269
vn -0.3653 -0.9309 -0.0000
vn -0.5633 -0.8262 -0.0000
vn -0.7069 -0.7069 0.0224
vn -0.7580 -0.6523 -0.0000
vn -0.8841 -0.4673 -0.0000
vn -0.9658 -0.2588 0.0134
vn -0.9749 -0.2225 -0.0000
vn 0.3989 -0.5850 0.7061
vn 0.1861 0.6947 0.6947
vn -0.6947 0.1862 0.6948
vn 0.4739 -0.8806 -0.0000
vn 1.0000 -0.0000 -0.0000
vn -0.9890 0.1479 -0.0000
vn -0.9972 0.0742 -0.0000
vn -0.9998 0.0186 -0.0000
vn -0.9998 -0.0186 -0.0000
vn -0.9890 -0.1479 -0.0000
vn -0.9972 -0.0742 -0.0000
vn 0.7021 -0.1193 -0.7021
vn -0.7021 0.1193 -0.7021
vn 0.7020 0.1193 -0.7021
vt 0.414758 0.062656
vt 0.690806 0.347482
vt 0.688234 0.347482
vt 0.688234 0.323458
vt 0.744827 0.347482
vt 0.688234 0.299267
vt 0.688234 0.276785
vt 0.690806 0.276785
vt 0.744827 0.323458
vt 0.744827 0.299267
vt 0.744827 0.276785
vt 0.613209 0.907968
vt 0.610636 0.907968
vt 0.610633 0.888528
vt 0.667226 0.888528
vt 0.667229 0.907968
vt 0.610632 0.867632
vt 0.613205 0.867632
vt 0.667225 0.867631
vt 0.613205 0.414536
vt 0.610632 0.414536
vt 0.610633 0.393736
vt 0.667225 0.414535
vt 0.610636 0.374582
vt 0.613209 0.374582
vt 0.667226 0.393736
vt 0.667229 0.374581
vt 0.690806 0.185462
vt 0.688234 0.185462
vt 0.688234 0.163822
vt 0.744827 0.163822
vt 0.744827 0.185462
vt 0.688234 0.139942
vt 0.688234 0.115672
vt 0.690806 0.115672
vt 0.744827 0.139942
vt 0.744827 0.115672
vt 0.608256 0.689248
vt 0.610632 0.785577
vt 0.572114 0.698219
vt 0.586839 0.642340
vt 0.555313 0.653529
vt 0.573894 0.592425
vt 0.897019 0.539409
vt 0.878438 0.600512
vt 0.863308 0.555228
vt 0.892937 0.488005
vt 0.838138 0.463133
vt 0.897844 0.436673
vt 0.742991 0.425691
vt 0.688234 0.437237
vt 0.688234 0.347482
vt 0.529536 0.475818
vt 0.551332 0.520606
vt 0.541573 0.526419
vt 0.581481 0.562440
vt 0.695708 0.700457
vt 0.618437 0.598404
vt 0.707019 0.693720
vt 0.661075 0.627403
vt 0.720133 0.692558
vt 0.708102 0.648559
vt 0.558177 0.407833
vt 0.610632 0.393431
vt 0.588465 0.439989
vt 0.547061 0.414887
vt 0.574719 0.489689
vt 0.870186 0.361871
vt 0.854921 0.363083
vt 0.841095 0.356500
vt 0.819869 0.369425
vt 0.832412 0.343886
vt 0.819485 0.345076
vt 0.831200 0.328621
vt 0.825830 0.321565
vt 0.701681 0.747686
vt 0.710651 0.758090
vt 0.687748 0.749815
vt 0.690706 0.737006
vt 0.670658 0.737530
vt 0.686655 0.724479
vt 0.657522 0.721085
vt 0.688440 0.711435
vt 0.515563 0.428009
vt 0.453247 0.309433
vt 0.509810 0.378532
vt 0.467983 0.305269
vt 0.512439 0.328792
vt 0.478663 0.294295
vt 0.522885 0.281772
vt 0.482425 0.279451
vt 0.540822 0.237070
vt 0.596428 0.111512
vt 0.597084 0.159268
vt 0.518253 0.166319
vt 0.565776 0.195871
vt 0.438403 0.305671
vt 0.425624 0.331754
vt 0.427429 0.294992
vt 0.417420 0.312371
vt 0.423378 0.282465
vt 0.414758 0.291492
vt 0.425163 0.269421
vt 0.418388 0.267413
vt 0.432430 0.258443
vt 0.428517 0.245267
vt 0.443741 0.251706
vt 0.444359 0.226773
vt 0.456856 0.250543
vt 0.469175 0.255186
vt 0.478261 0.264715
vt 0.678453 0.062656
vt 0.720133 0.085977
vt 0.675300 0.103583
vt 0.636987 0.086323
vt 0.654106 0.115063
vt 0.633918 0.128231
vt 0.806202 0.705772
vt 0.761980 0.705772
vt 0.761980 0.389366
vt 0.672558 0.437237
vt 0.672558 0.758788
vt 0.625824 0.758788
vt 0.625824 0.437237
vt 0.577817 0.758788
vt 0.577817 0.437237
vt 0.529811 0.758788
vt 0.900943 0.384221
vt 0.852936 0.705772
vt 0.852936 0.384221
vt 0.806202 0.384221
vt 0.761980 0.384221
vt 0.862794 0.384221
vt 0.862794 0.062669
vt 0.914233 0.062668
vt 0.539669 0.437237
vt 0.591108 0.115685
vt 0.591108 0.437236
vt 0.641136 0.115680
vt 0.641136 0.437232
vt 0.688234 0.115673
vt 0.688234 0.437224
vt 0.819485 0.321565
vt 0.819485 0.643116
vt 0.773520 0.643116
vt 0.920763 0.437237
vt 0.874798 0.758788
vt 0.874798 0.437237
vt 0.825473 0.758788
vt 0.825473 0.437237
vt 0.774286 0.758788
vt 0.774286 0.437237
vt 0.722793 0.758788
vt 0.722793 0.437237
vt 0.672558 0.758788
vt 0.672558 0.437237
vt 0.720133 0.705772
vt 0.720133 0.384221
vt 0.720133 0.384207
vt 0.720133 0.062656
vt 0.765232 0.062663
vt 0.765232 0.384214
vt 0.813239 0.062668
vt 0.813239 0.384219
vt 0.742991 0.348768
vt 0.745219 0.347482
vt 0.746610 0.362273
vt 0.749183 0.362273
vt 0.742991 0.375778
vt 0.745219 0.377065
vt 0.742991 0.378351
vt 0.746610 0.391856
vt 0.749182 0.391856
vt 0.742991 0.405361
vt 0.745219 0.406647
vt 0.729368 0.254919
vt 0.729666 0.257492
vt 0.715535 0.254919
vt 0.714515 0.257492
vt 0.729666 0.257492
vt 0.729666 0.224050
vt 0.742661 0.257492
vt 0.715240 0.188037
vt 0.715240 0.221478
vt 0.701799 0.188035
vt 0.701799 0.221477
vt 0.715535 0.221478
vt 0.728395 0.218903
vt 0.728395 0.185462
vt 0.741390 0.218903
vt 0.714515 0.224053
vt 0.714515 0.257494
vt 0.701074 0.224051
vt 0.701074 0.257493
vt 0.689310 0.224052
vt 0.744827 0.310275
vt 0.744827 0.276785
vt 0.746626 0.310178
vt 0.742661 0.257492
vt 0.742661 0.224050
vt 0.752022 0.257492
vt 0.690036 0.188036
vt 0.688234 0.221478
vt 0.688234 0.188037
vt 0.741390 0.185462
vt 0.750751 0.218903
vt 0.715710 0.218903
vt 0.719723 0.185462
vt 0.719723 0.218903
vt 0.727721 0.218903
vt 0.688234 0.221479
vt 0.701117 0.221478
vt 0.689793 0.276785
vt 0.688234 0.274739
vt 0.689793 0.273455
vt 0.699258 0.270405
vt 0.696685 0.267212
vt 0.699258 0.258321
vt 0.704176 0.270405
vt 0.701830 0.260640
vt 0.704176 0.259585
vt 0.694113 0.271476
vt 0.691541 0.266993
vt 0.694113 0.258321
vt 0.691541 0.258995
vt 0.688959 0.185463
vt 0.701842 0.185462
vt 0.696685 0.270405
vt 0.694113 0.267212
vt 0.696685 0.258321
vt 0.688234 0.271476
vt 0.688984 0.261461
vt 0.691541 0.261173
vt 0.688234 0.257494
vt 0.715240 0.221476
vt 0.728395 0.221476
vt 0.701830 0.270405
vt 0.699258 0.265457
vt 0.701830 0.258786
vt 0.610632 0.456283
vt 0.667225 0.641083
vt 0.610632 0.825885
s 0
usemtl Material.007
f 1/1/1 2/1/1 3/1/1
f 1/1/1 3/1/1 4/1/1
f 5/1/2 6/1/2 7/1/2
f 4/1/1 3/1/1 8/1/1
f 8/1/3 3/1/3 9/1/3
f 8/1/3 9/1/3 10/1/3
f 10/1/4 9/1/4 5/1/4
f 10/1/4 5/1/4 11/1/4
f 11/1/2 5/1/2 7/1/2
f 11/1/2 7/1/2 12/1/2
f 13/1/5 14/1/5 15/1/5
f 16/1/5 17/1/5 13/1/5
f 18/1/6 19/1/6 20/1/6
f 13/1/5 15/1/5 16/1/5
f 16/1/7 15/1/7 21/1/7
f 16/1/7 21/1/7 22/1/7
f 22/1/8 21/1/8 18/1/8
f 22/1/8 18/1/8 23/1/8
f 23/1/6 18/1/6 20/1/6
f 23/1/6 20/1/6 24/1/6
f 25/1/9 26/1/9 27/1/9
f 25/1/10 24/1/10 26/1/10
f 26/1/10 24/1/10 20/1/10
f 26/1/10 20/1/10 19/1/10
f 28/1/11 29/1/11 27/1/11
f 27/1/12 29/1/12 30/1/12
f 27/1/9 30/1/9 25/1/9
f 31/1/13 32/1/13 33/1/13
f 27/1/14 34/1/14 28/1/14
f 28/1/15 34/1/15 31/1/15
f 28/1/15 31/1/15 35/1/15
f 35/1/13 31/1/13 33/1/13
f 35/1/13 33/1/13 36/1/13
f 33/2/16 32/3/16 37/4/16
f 33/2/16 37/4/16 36/5/16
f 38/6/17 39/7/17 40/8/17
f 36/5/16 37/4/16 41/9/16
f 41/9/18 37/4/18 38/6/18
f 41/9/19 38/6/19 42/10/19
f 42/10/17 38/6/17 40/8/17
f 42/10/17 40/8/17 43/11/17
f 40/12/20 39/13/20 44/14/20
f 45/15/20 43/16/20 40/12/20
f 44/14/21 46/17/21 47/18/21
f 40/12/20 44/14/20 45/15/20
f 45/15/21 44/14/21 47/18/21
f 45/15/21 47/18/21 48/19/21
f 49/20/22 50/21/22 51/22/22
f 49/20/22 51/22/22 52/23/22
f 51/22/23 53/24/23 54/25/23
f 52/23/22 51/22/22 55/26/22
f 55/26/23 51/22/23 54/25/23
f 55/26/23 54/25/23 56/27/23
f 54/28/24 53/29/24 57/30/24
f 58/31/24 56/32/24 54/28/24
f 59/33/25 60/34/25 61/35/25
f 54/28/26 57/30/26 58/31/26
f 58/31/27 57/30/27 59/33/27
f 58/31/27 59/33/27 62/36/27
f 62/36/25 59/33/25 61/35/25
f 62/36/25 61/35/25 63/37/25
f 64/1/28 65/1/28 66/1/28
f 64/1/29 63/1/29 65/1/29
f 65/1/29 63/1/29 61/1/29
f 65/1/29 61/1/29 60/1/29
f 67/1/30 68/1/30 66/1/30
f 66/1/31 68/1/31 69/1/31
f 66/1/28 69/1/28 64/1/28
f 70/1/32 2/1/32 1/1/32
f 66/1/33 71/1/33 67/1/33
f 67/1/34 71/1/34 70/1/34
f 67/1/34 70/1/34 72/1/34
f 72/1/32 70/1/32 1/1/32
f 72/1/32 1/1/32 4/1/32
f 73/1/35 74/1/35 75/1/35
f 75/1/35 74/1/35 76/1/35
f 75/1/36 76/1/36 77/1/36
f 77/1/36 76/1/36 78/1/36
f 77/1/37 78/1/37 79/1/37
f 79/1/37 78/1/37 80/1/37
f 79/1/38 80/1/38 81/1/38
f 81/1/38 80/1/38 82/1/38
f 81/1/39 82/1/39 83/1/39
f 83/1/39 82/1/39 84/1/39
f 83/1/40 84/1/40 85/1/40
f 85/1/40 84/1/40 86/1/40
f 85/1/14 86/1/14 87/1/14
f 87/1/14 86/1/14 88/1/14
f 87/1/41 88/1/41 89/1/41
f 89/1/41 88/1/41 90/1/41
f 89/1/42 90/1/42 91/1/42
f 91/1/42 90/1/42 92/1/42
f 91/1/43 92/1/43 93/1/43
f 93/1/43 92/1/43 94/1/43
f 93/1/44 94/1/44 95/1/44
f 95/1/44 94/1/44 96/1/44
f 95/1/45 96/1/45 97/1/45
f 97/1/45 96/1/45 98/1/45
f 97/1/46 98/1/46 99/1/46
f 99/1/46 98/1/46 100/1/46
f 99/1/47 100/1/47 101/1/47
f 101/1/47 100/1/47 102/1/47
f 101/1/48 102/1/48 103/1/48
f 103/1/48 102/1/48 104/1/48
f 103/1/49 104/1/49 105/1/49
f 105/1/49 104/1/49 106/1/49
f 105/1/50 106/1/50 107/1/50
f 107/1/50 106/1/50 108/1/50
f 107/1/51 108/1/51 109/1/51
f 109/1/51 108/1/51 110/1/51
f 109/1/52 110/1/52 111/1/52
f 111/1/52 110/1/52 112/1/52
f 111/1/33 112/1/33 113/1/33
f 113/1/33 112/1/33 114/1/33
f 113/1/53 114/1/53 115/1/53
f 115/1/53 114/1/53 116/1/53
f 115/1/54 116/1/54 117/1/54
f 117/1/54 116/1/54 118/1/54
f 117/1/55 118/1/55 119/1/55
f 119/1/55 118/1/55 120/1/55
f 119/1/56 120/1/56 121/1/56
f 121/1/56 120/1/56 122/1/56
f 121/1/57 122/1/57 123/1/57
f 123/1/57 122/1/57 124/1/57
f 123/1/58 124/1/58 73/1/58
f 73/1/58 124/1/58 74/1/58
f 125/1/59 126/1/59 127/1/59
f 127/1/60 126/1/60 128/1/60
f 127/1/61 128/1/61 129/1/61
f 129/1/62 128/1/62 130/1/62
f 129/1/63 130/1/63 131/1/63
f 131/1/63 130/1/63 132/1/63
f 131/1/64 132/1/64 133/1/64
f 133/1/64 132/1/64 134/1/64
f 133/1/65 134/1/65 135/1/65
f 135/1/65 134/1/65 136/1/65
f 135/1/66 136/1/66 137/1/66
f 137/1/67 136/1/67 138/1/67
f 137/1/68 138/1/68 139/1/68
f 139/1/69 138/1/69 140/1/69
f 139/1/70 140/1/70 141/1/70
f 141/1/71 140/1/71 142/1/71
f 141/1/72 142/1/72 143/1/72
f 143/1/72 142/1/72 144/1/72
f 143/1/73 144/1/73 145/1/73
f 145/1/73 144/1/73 146/1/73
f 145/1/74 146/1/74 147/1/74
f 147/1/75 146/1/75 148/1/75
f 147/1/76 148/1/76 149/1/76
f 149/1/76 148/1/76 150/1/76
f 149/1/77 150/1/77 151/1/77
f 151/1/78 150/1/78 152/1/78
f 151/1/79 152/1/79 153/1/79
f 153/1/80 152/1/80 154/1/80
f 153/1/81 154/1/81 125/1/81
f 125/1/81 154/1/81 126/1/81
f 155/1/82 25/1/82 156/1/82
f 156/38/82 25/39/82 30/40/82
f 156/38/82 30/40/82 157/41/82
f 157/41/82 30/40/82 29/42/82
f 157/41/82 29/42/82 158/43/82
f 158/44/82 29/45/82 28/46/82
f 158/44/82 28/46/82 159/47/82
f 159/47/82 28/46/82 35/48/82
f 159/47/82 35/48/82 160/49/82
f 155/1/82 161/1/82 25/1/82
f 25/1/82 161/1/82 162/1/82
f 25/1/82 162/1/82 24/1/82
f 24/1/82 162/1/82 163/1/82
f 24/1/82 163/1/82 23/1/82
f 164/1/82 165/1/82 166/1/82
f 166/1/82 165/1/82 167/1/82
f 166/1/82 167/1/82 168/1/82
f 168/1/82 167/1/82 169/1/82
f 168/1/82 169/1/82 170/1/82
f 170/1/82 169/1/82 171/1/82
f 170/1/82 171/1/82 161/1/82
f 161/1/82 171/1/82 172/1/82
f 161/1/82 172/1/82 162/1/82
f 163/1/82 173/1/82 23/1/82
f 23/1/82 173/1/82 174/1/82
f 23/1/82 174/1/82 22/1/82
f 22/1/82 174/1/82 175/1/82
f 22/1/82 175/1/82 16/1/82
f 16/1/82 175/1/82 176/1/82
f 16/1/82 176/1/82 17/1/82
f 17/1/82 176/1/82 177/1/82
f 17/1/82 177/1/82 178/1/82
f 178/1/82 177/1/82 179/1/82
f 178/1/82 179/1/82 180/1/82
f 180/1/82 179/1/82 165/1/82
f 180/1/82 165/1/82 181/1/82
f 181/1/82 165/1/82 164/1/82
f 182/1/82 183/1/82 184/1/82
f 185/1/82 186/1/82 187/1/82
f 187/1/82 186/1/82 188/1/82
f 187/1/82 188/1/82 189/1/82
f 189/1/82 188/1/82 181/1/82
f 189/1/82 181/1/82 190/1/82
f 190/1/82 181/1/82 164/1/82
f 185/1/82 182/1/82 186/1/82
f 186/1/82 182/1/82 184/1/82
f 186/1/82 184/1/82 12/1/82
f 12/1/82 184/1/82 191/1/82
f 12/1/82 191/1/82 11/1/82
f 191/1/82 192/1/82 11/1/82
f 11/1/82 192/1/82 193/1/82
f 11/1/82 193/1/82 10/1/82
f 10/1/82 193/1/82 194/1/82
f 10/1/82 194/1/82 8/1/82
f 8/1/82 194/1/82 195/1/82
f 8/1/82 195/1/82 4/1/82
f 4/1/82 195/1/82 196/1/82
f 4/1/82 196/1/82 72/1/82
f 72/1/82 196/1/82 197/1/82
f 72/1/82 197/1/82 198/1/82
f 183/1/82 182/1/82 199/1/82
f 199/1/82 182/1/82 200/1/82
f 199/1/82 200/1/82 201/1/82
f 201/1/82 200/1/82 202/1/82
f 201/1/82 202/1/82 203/1/82
f 203/1/82 202/1/82 204/1/82
f 203/1/82 204/1/82 198/1/82
f 198/1/82 204/1/82 72/1/82
f 72/1/82 204/1/82 205/1/82
f 72/50/82 205/51/82 67/52/82
f 206/53/82 207/54/82 208/55/82
f 208/55/82 207/54/82 209/56/82
f 208/55/82 209/56/82 210/57/82
f 210/57/82 209/56/82 211/58/82
f 210/57/82 211/58/82 212/59/82
f 212/59/82 211/58/82 213/60/82
f 212/59/82 213/60/82 214/61/82
f 214/61/82 213/60/82 215/62/82
f 214/1/82 215/1/82 216/1/82
f 216/63/82 215/64/82 217/65/82
f 216/63/82 217/65/82 218/66/82
f 218/66/82 217/65/82 160/67/82
f 218/68/82 160/49/82 219/69/82
f 219/69/82 160/49/82 35/48/82
f 219/69/82 35/48/82 220/70/82
f 220/70/82 35/48/82 36/71/82
f 220/70/82 36/71/82 221/72/82
f 221/72/82 36/71/82 41/73/82
f 221/72/82 41/73/82 222/74/82
f 222/74/82 41/73/82 42/75/82
f 222/1/82 42/1/82 223/1/82
f 223/76/82 42/77/82 43/78/82
f 223/76/82 43/78/82 224/79/82
f 224/79/82 43/78/82 45/80/82
f 224/79/82 45/80/82 225/81/82
f 225/81/82 45/80/82 48/82/82
f 225/81/82 48/82/82 226/83/82
f 226/83/82 48/82/82 208/55/82
f 226/83/82 208/55/82 210/57/82
f 227/84/82 228/85/82 229/86/82
f 229/86/82 228/85/82 230/87/82
f 229/86/82 230/87/82 231/88/82
f 231/88/82 230/87/82 232/89/82
f 231/88/82 232/89/82 233/90/82
f 233/90/82 232/89/82 234/91/82
f 233/90/82 234/91/82 235/92/82
f 69/93/82 236/94/82 64/95/82
f 64/95/82 236/94/82 237/96/82
f 64/95/82 237/96/82 235/92/82
f 227/84/82 206/53/82 228/85/82
f 228/85/82 206/53/82 208/55/82
f 228/1/82 208/1/82 238/1/82
f 238/97/82 208/55/82 52/98/82
f 238/97/82 52/98/82 239/99/82
f 239/99/82 52/98/82 55/100/82
f 239/99/82 55/100/82 240/101/82
f 240/101/82 55/100/82 56/102/82
f 240/101/82 56/102/82 241/103/82
f 241/103/82 56/102/82 58/104/82
f 241/103/82 58/104/82 242/105/82
f 242/105/82 58/104/82 62/106/82
f 242/105/82 62/106/82 243/107/82
f 243/107/82 62/106/82 63/108/82
f 243/107/82 63/108/82 244/109/82
f 244/109/82 63/108/82 64/95/82
f 244/109/82 64/95/82 245/110/82
f 245/110/82 64/95/82 235/92/82
f 245/110/82 235/92/82 246/111/82
f 246/111/82 235/92/82 234/91/82
f 205/1/82 247/1/82 67/1/82
f 67/112/82 247/113/82 248/114/82
f 67/112/82 248/114/82 68/115/82
f 68/115/82 248/114/82 249/116/82
f 68/115/82 249/116/82 69/93/82
f 69/93/82 249/116/82 250/117/82
f 69/93/82 250/117/82 236/94/82
f 251/1/82 252/1/82 253/1/82
f 253/1/82 252/1/82 254/1/82
f 253/1/82 254/1/82 255/1/82
f 255/1/82 254/1/82 256/1/82
f 255/1/82 256/1/82 257/1/82
f 257/1/82 256/1/82 258/1/82
f 257/1/82 258/1/82 259/1/82
f 259/1/82 258/1/82 260/1/82
f 259/1/82 260/1/82 261/1/82
f 261/1/82 260/1/82 262/1/82
f 261/1/82 262/1/82 263/1/82
f 262/1/82 264/1/82 263/1/82
f 263/1/82 264/1/82 265/1/82
f 263/1/82 265/1/82 266/1/82
f 266/1/82 265/1/82 267/1/82
f 266/1/82 267/1/82 268/1/82
f 268/1/82 267/1/82 269/1/82
f 268/1/82 269/1/82 270/1/82
f 270/1/82 269/1/82 271/1/82
f 270/1/82 271/1/82 272/1/82
f 272/1/82 271/1/82 273/1/82
f 272/1/82 273/1/82 274/1/82
f 274/1/82 273/1/82 275/1/82
f 274/1/82 275/1/82 251/1/82
f 251/1/82 275/1/82 276/1/82
f 251/1/82 276/1/82 252/1/82
f 277/1/82 278/1/82 279/1/82
f 279/1/82 278/1/82 280/1/82
f 279/1/82 280/1/82 281/1/82
f 281/1/82 280/1/82 282/1/82
f 281/1/82 282/1/82 283/1/82
f 283/1/82 282/1/82 284/1/82
f 283/1/82 284/1/82 285/1/82
f 285/1/82 284/1/82 286/1/82
f 285/1/82 286/1/82 287/1/82
f 287/1/82 286/1/82 288/1/82
f 287/1/82 288/1/82 289/1/82
f 288/1/82 290/1/82 289/1/82
f 289/1/82 290/1/82 291/1/82
f 289/1/82 291/1/82 292/1/82
f 292/1/82 291/1/82 293/1/82
f 292/1/82 293/1/82 294/1/82
f 294/1/82 293/1/82 295/1/82
f 294/1/82 295/1/82 296/1/82
f 296/1/82 295/1/82 297/1/82
f 296/1/82 297/1/82 298/1/82
f 298/1/82 297/1/82 299/1/82
f 298/1/82 299/1/82 300/1/82
f 300/1/82 299/1/82 301/1/82
f 300/1/82 301/1/82 277/1/82
f 277/1/82 301/1/82 302/1/82
f 277/1/82 302/1/82 278/1/82
f 303/1/82 304/1/82 305/1/82
f 305/1/82 304/1/82 306/1/82
f 305/1/82 306/1/82 307/1/82
f 307/1/82 306/1/82 308/1/82
f 307/1/82 308/1/82 309/1/82
f 309/1/82 308/1/82 310/1/82
f 309/1/82 310/1/82 311/1/82
f 311/1/82 310/1/82 312/1/82
f 311/1/82 312/1/82 313/1/82
f 313/1/82 312/1/82 314/1/82
f 313/1/82 314/1/82 315/1/82
f 314/1/82 316/1/82 315/1/82
f 315/1/82 316/1/82 317/1/82
f 315/1/82 317/1/82 318/1/82
f 318/1/82 317/1/82 319/1/82
f 318/1/82 319/1/82 320/1/82
f 320/1/82 319/1/82 321/1/82
f 320/1/82 321/1/82 322/1/82
f 322/1/82 321/1/82 323/1/82
f 322/1/82 323/1/82 324/1/82
f 324/1/82 323/1/82 325/1/82
f 324/1/82 325/1/82 326/1/82
f 326/1/82 325/1/82 327/1/82
f 326/1/82 327/1/82 303/1/82
f 303/1/82 327/1/82 328/1/82
f 303/1/82 328/1/82 304/1/82
f 193/1/83 192/1/83 329/1/83
f 329/1/83 330/1/83 193/1/83
f 193/1/84 330/1/84 331/1/84
f 193/1/85 331/1/85 194/1/85
f 331/1/86 332/1/86 194/1/86
f 194/1/87 332/1/87 333/1/87
f 194/1/88 333/1/88 195/1/88
f 333/1/89 334/1/89 195/1/89
f 195/1/90 334/1/90 335/1/90
f 195/1/91 335/1/91 196/1/91
f 196/1/92 335/1/92 336/1/92
f 196/1/93 336/1/93 197/1/93
f 336/1/94 337/1/94 197/1/94
f 197/1/95 337/1/95 338/1/95
f 197/1/96 338/1/96 198/1/96
f 339/1/97 203/1/97 340/1/97
f 340/1/97 203/1/97 198/1/97
f 340/1/98 198/1/98 341/1/98
f 341/1/99 198/1/99 338/1/99
f 120/1/82 342/1/82 122/1/82
f 122/1/82 342/1/82 343/1/82
f 122/1/82 343/1/82 124/1/82
f 124/1/82 343/1/82 344/1/82
f 124/1/82 344/1/82 74/1/82
f 74/1/82 344/1/82 345/1/82
f 74/1/82 345/1/82 76/1/82
f 76/1/82 345/1/82 346/1/82
f 76/1/82 346/1/82 78/1/82
f 116/1/82 347/1/82 118/1/82
f 118/1/82 347/1/82 348/1/82
f 118/1/82 348/1/82 120/1/82
f 120/1/82 348/1/82 349/1/82
f 120/1/82 349/1/82 342/1/82
f 112/1/82 350/1/82 114/1/82
f 114/1/82 350/1/82 351/1/82
f 114/1/82 351/1/82 116/1/82
f 116/1/82 351/1/82 352/1/82
f 116/1/82 352/1/82 347/1/82
f 108/1/82 353/1/82 110/1/82
f 110/1/82 353/1/82 354/1/82
f 110/1/82 354/1/82 112/1/82
f 112/1/82 354/1/82 355/1/82
f 112/1/82 355/1/82 350/1/82
f 104/1/82 356/1/82 106/1/82
f 106/1/82 356/1/82 357/1/82
f 106/1/82 357/1/82 108/1/82
f 108/1/82 357/1/82 358/1/82
f 108/1/82 358/1/82 353/1/82
f 84/1/82 82/1/82 359/1/82
f 359/1/82 82/1/82 80/1/82
f 359/1/82 80/1/82 360/1/82
f 360/1/82 80/1/82 78/1/82
f 360/1/82 78/1/82 361/1/82
f 361/1/82 78/1/82 346/1/82
f 92/1/82 90/1/82 362/1/82
f 362/1/82 90/1/82 88/1/82
f 362/1/82 88/1/82 359/1/82
f 359/1/82 88/1/82 86/1/82
f 359/1/82 86/1/82 84/1/82
f 92/1/82 362/1/82 94/1/82
f 94/1/82 362/1/82 363/1/82
f 94/1/82 363/1/82 96/1/82
f 96/1/82 363/1/82 364/1/82
f 96/1/82 364/1/82 98/1/82
f 98/1/82 364/1/82 365/1/82
f 98/1/82 365/1/82 100/1/82
f 100/1/82 365/1/82 366/1/82
f 100/1/82 366/1/82 102/1/82
f 102/1/82 366/1/82 367/1/82
f 102/1/82 367/1/82 104/1/82
f 104/1/82 367/1/82 368/1/82
f 104/1/82 368/1/82 356/1/82
f 141/1/100 369/1/100 139/1/100
f 139/1/100 369/1/100 370/1/100
f 139/1/101 370/1/101 137/1/101
f 137/1/101 370/1/101 371/1/101
f 137/1/102 371/1/102 135/1/102
f 135/1/102 371/1/102 372/1/102
f 135/1/14 372/1/14 133/1/14
f 133/1/14 372/1/14 373/1/14
f 133/1/103 373/1/103 131/1/103
f 131/1/104 373/1/104 374/1/104
f 375/1/105 125/1/105 376/1/105
f 376/1/105 125/1/105 377/1/105
f 376/1/106 377/1/106 374/1/106
f 374/1/106 377/1/106 378/1/106
f 374/1/107 378/1/107 131/1/107
f 125/1/108 375/1/108 153/1/108
f 153/1/108 375/1/108 379/1/108
f 153/1/109 379/1/109 151/1/109
f 151/1/109 379/1/109 380/1/109
f 151/1/110 380/1/110 149/1/110
f 149/1/110 380/1/110 381/1/110
f 149/1/33 381/1/33 147/1/33
f 147/1/33 381/1/33 382/1/33
f 147/1/111 382/1/111 145/1/111
f 145/1/111 382/1/111 383/1/111
f 145/1/112 383/1/112 143/1/112
f 143/1/112 383/1/112 384/1/112
f 143/1/113 384/1/113 141/1/113
f 141/1/113 384/1/113 369/1/113
f 200/1/114 362/1/114 385/1/114
f 200/1/114 385/1/114 202/1/114
f 202/1/115 385/1/115 386/1/115
f 202/1/115 386/1/115 204/1/115
f 204/1/116 386/1/116 387/1/116
f 204/1/116 387/1/116 205/1/116
f 205/1/117 387/1/117 388/1/117
f 205/1/117 388/1/117 247/1/117
f 247/1/118 388/1/118 389/1/118
f 247/1/118 389/1/118 248/1/118
f 390/118/119 359/119/119 391/120/119
f 248/1/120 389/1/120 249/1/120
f 249/1/121 389/1/121 392/1/121
f 249/1/122 392/1/122 250/1/122
f 250/121/123 392/122/123 393/123/123
f 250/121/123 393/123/123 236/124/123
f 236/124/124 393/123/124 394/125/124
f 236/124/124 394/125/124 237/126/124
f 237/126/125 394/125/125 395/127/125
f 237/128/125 395/129/125 235/130/125
f 235/130/126 395/129/126 390/118/126
f 235/130/126 390/118/126 233/131/126
f 233/131/119 390/118/119 391/120/119
f 233/131/119 391/120/119 231/132/119
f 189/1/127 366/1/127 365/1/127
f 189/1/127 365/1/127 187/1/127
f 187/1/128 365/1/128 364/1/128
f 187/1/128 364/1/128 185/1/128
f 185/1/129 364/1/129 363/1/129
f 185/1/129 363/1/129 182/1/129
f 182/1/130 363/1/130 362/1/130
f 182/1/130 362/1/130 200/1/130
f 207/133/131 345/134/131 344/135/131
f 207/136/131 344/137/131 209/138/131
f 209/138/132 344/137/132 343/139/132
f 209/138/132 343/139/132 211/140/132
f 211/140/133 343/139/133 342/141/133
f 211/140/133 342/141/133 213/142/133
f 213/143/134 342/144/134 349/145/134
f 213/146/134 349/147/134 215/148/134
f 215/148/135 349/147/135 348/149/135
f 215/148/135 348/149/135 217/150/135
f 217/150/136 348/149/136 347/151/136
f 217/150/136 347/151/136 160/152/136
f 160/152/137 347/151/137 352/153/137
f 160/152/137 352/153/137 159/154/137
f 159/154/138 352/153/138 351/155/138
f 159/154/138 351/155/138 158/156/138
f 158/1/139 351/1/139 350/1/139
f 158/1/139 350/1/139 157/1/139
f 157/1/140 350/1/140 355/1/140
f 157/1/140 355/1/140 156/1/140
f 156/1/141 355/1/141 354/1/141
f 156/1/141 354/1/141 155/1/141
f 155/1/142 354/1/142 353/1/142
f 155/1/142 353/1/142 161/1/142
f 161/1/143 353/1/143 358/1/143
f 161/1/143 358/1/143 170/1/143
f 170/1/144 358/1/144 357/1/144
f 170/1/144 357/1/144 168/1/144
f 168/1/145 357/1/145 356/1/145
f 168/1/145 356/1/145 166/1/145
f 166/1/146 356/1/146 368/1/146
f 166/1/146 368/1/146 164/1/146
f 164/1/147 368/1/147 367/1/147
f 164/1/147 367/1/147 190/1/147
f 190/1/148 367/1/148 366/1/148
f 190/1/148 366/1/148 189/1/148
f 391/120/149 359/119/149 360/157/149
f 229/158/149 231/132/149 391/120/149
f 391/120/149 360/157/149 229/158/149
f 229/159/150 360/160/150 361/161/150
f 229/159/150 361/161/150 227/162/150
f 227/162/151 361/161/151 346/163/151
f 227/162/151 346/163/151 206/164/151
f 206/164/152 346/163/152 345/134/152
f 206/164/152 345/134/152 207/133/152
f 396/165/153 246/166/153 397/167/153
f 397/167/153 246/166/153 398/168/153
f 397/167/154 398/168/154 399/169/154
f 399/169/155 398/168/155 232/170/155
f 399/1/156 232/1/156 400/1/156
f 400/1/157 232/1/157 230/1/157
f 400/1/158 230/1/158 401/1/158
f 401/1/158 230/1/158 228/1/158
f 401/1/159 228/1/159 402/1/159
f 402/1/159 228/1/159 238/1/159
f 402/1/160 238/1/160 403/1/160
f 403/1/161 238/1/161 239/1/161
f 404/1/162 176/1/162 405/1/162
f 405/1/162 176/1/162 175/1/162
f 405/1/155 175/1/155 406/1/155
f 406/1/155 175/1/155 174/1/155
f 406/1/163 174/1/163 407/1/163
f 407/1/163 174/1/163 173/1/163
f 407/1/158 173/1/158 408/1/158
f 408/1/158 173/1/158 163/1/158
f 408/1/159 163/1/159 409/1/159
f 409/1/159 163/1/159 162/1/159
f 409/1/161 162/1/161 410/1/161
f 410/1/160 162/1/160 172/1/160
f 411/171/162 218/170/162 412/172/162
f 412/172/162 218/170/162 413/173/162
f 412/172/154 413/173/154 414/174/154
f 414/174/155 413/173/155 220/175/155
f 414/176/157 220/177/157 415/178/157
f 415/178/163 220/177/163 221/179/163
f 415/1/158 221/1/158 416/1/158
f 416/1/158 221/1/158 222/1/158
f 416/1/159 222/1/159 417/1/159
f 417/1/159 222/1/159 223/1/159
f 417/1/160 223/1/160 418/1/160
f 418/1/161 223/1/161 224/1/161
f 403/1/164 309/1/164 402/1/164
f 402/1/164 309/1/164 311/1/164
f 402/1/165 311/1/165 401/1/165
f 401/1/165 311/1/165 313/1/165
f 401/1/166 313/1/166 400/1/166
f 400/1/166 313/1/166 315/1/166
f 400/1/167 315/1/167 399/1/167
f 399/1/167 315/1/167 318/1/167
f 399/180/168 318/181/168 397/182/168
f 397/1/168 318/1/168 320/1/168
f 397/183/169 320/184/169 396/185/169
f 396/185/169 320/184/169 322/186/169
f 410/1/164 283/1/164 409/1/164
f 409/1/164 283/1/164 285/1/164
f 409/1/165 285/1/165 408/1/165
f 408/1/165 285/1/165 287/1/165
f 408/1/166 287/1/166 407/1/166
f 407/1/166 287/1/166 289/1/166
f 407/1/167 289/1/167 406/1/167
f 406/1/167 289/1/167 292/1/167
f 406/1/168 292/1/168 405/1/168
f 405/1/168 292/1/168 294/1/168
f 405/1/169 294/1/169 404/1/169
f 404/1/169 294/1/169 296/1/169
f 418/1/164 257/1/164 417/1/164
f 417/1/164 257/1/164 259/1/164
f 417/1/165 259/1/165 416/1/165
f 416/1/165 259/1/165 261/1/165
f 416/1/166 261/1/166 415/1/166
f 415/1/166 261/1/166 263/1/166
f 415/178/167 263/187/167 414/176/167
f 414/1/167 263/1/167 266/1/167
f 414/188/168 266/189/168 412/190/168
f 412/1/168 266/1/168 268/1/168
f 412/191/169 268/192/169 411/193/169
f 411/193/169 268/192/169 270/194/169
f 379/1/170 375/1/170 384/1/170
f 372/1/170 371/1/170 370/1/170
f 376/1/170 374/1/170 373/1/170
f 384/1/170 383/1/170 382/1/170
f 373/1/170 372/1/170 376/1/170
f 376/1/170 372/1/170 370/1/170
f 376/1/170 370/1/170 375/1/170
f 375/1/170 370/1/170 369/1/170
f 375/1/170 369/1/170 384/1/170
f 379/1/170 384/1/170 380/1/170
f 380/1/170 384/1/170 382/1/170
f 380/1/170 382/1/170 381/1/170
f 362/1/82 359/1/82 390/1/82
f 394/1/82 393/1/82 385/1/82
f 362/1/82 390/1/82 385/1/82
f 385/1/82 390/1/82 395/1/82
f 385/1/82 395/1/82 394/1/82
f 393/1/82 392/1/82 385/1/82
f 385/1/82 392/1/82 389/1/82
f 385/1/82 389/1/82 386/1/82
f 386/1/82 389/1/82 388/1/82
f 386/1/82 388/1/82 387/1/82
f 411/193/171 270/194/171 419/195/171
f 419/1/172 270/1/172 272/1/172
f 419/196/173 272/197/173 420/198/173
f 420/199/174 272/200/174 421/201/174
f 421/1/175 272/1/175 274/1/175
f 421/1/176 274/1/176 422/1/176
f 422/1/177 274/1/177 423/1/177
f 423/1/178 274/1/178 251/1/178
f 423/1/179 251/1/179 424/1/179
f 424/1/180 251/1/180 425/1/180
f 425/1/181 251/1/181 253/1/181
f 425/1/182 253/1/182 426/1/182
f 426/1/183 253/1/183 427/1/183
f 427/1/184 253/1/184 255/1/184
f 427/1/185 255/1/185 428/1/185
f 428/1/186 255/1/186 429/1/186
f 429/1/187 255/1/187 257/1/187
f 429/1/188 257/1/188 418/1/188
f 404/1/171 296/1/171 430/1/171
f 430/1/172 296/1/172 298/1/172
f 430/1/173 298/1/173 431/1/173
f 431/1/174 298/1/174 432/1/174
f 432/1/175 298/1/175 300/1/175
f 432/1/176 300/1/176 433/1/176
f 433/1/177 300/1/177 434/1/177
f 434/1/178 300/1/178 277/1/178
f 434/1/179 277/1/179 435/1/179
f 435/1/180 277/1/180 436/1/180
f 436/1/181 277/1/181 279/1/181
f 436/1/182 279/1/182 437/1/182
f 437/1/183 279/1/183 438/1/183
f 438/1/184 279/1/184 281/1/184
f 438/1/185 281/1/185 439/1/185
f 439/1/186 281/1/186 440/1/186
f 440/1/187 281/1/187 283/1/187
f 440/1/188 283/1/188 410/1/188
f 396/185/171 322/186/171 441/202/171
f 441/202/172 322/186/172 324/203/172
f 441/202/173 324/203/173 442/204/173
f 442/190/174 324/205/174 443/206/174
f 443/1/175 324/1/175 326/1/175
f 443/207/176 326/208/176 444/209/176
f 444/209/177 326/208/177 445/210/177
f 445/1/178 326/1/178 303/1/178
f 445/1/179 303/1/179 446/1/179
f 446/1/180 303/1/180 447/1/180
f 447/1/181 303/1/181 305/1/181
f 447/1/182 305/1/182 448/1/182
f 448/1/183 305/1/183 449/1/183
f 449/1/184 305/1/184 307/1/184
f 449/1/185 307/1/185 450/1/185
f 450/1/186 307/1/186 451/1/186
f 451/1/187 307/1/187 309/1/187
f 451/1/188 309/1/188 403/1/188
f 216/211/83 218/212/83 411/193/83
f 411/193/83 419/195/83 216/211/83
f 216/213/84 419/214/84 420/215/84
f 216/216/85 420/217/85 214/218/85
f 420/219/86 421/220/86 214/221/86
f 214/1/87 421/1/87 422/1/87
f 214/222/88 422/223/88 212/224/88
f 422/223/89 423/225/89 212/224/89
f 212/1/90 423/1/90 424/1/90
f 212/1/91 424/1/91 210/1/91
f 210/1/92 424/1/92 425/1/92
f 210/1/93 425/1/93 226/1/93
f 425/1/94 426/1/94 226/1/94
f 226/1/95 426/1/95 427/1/95
f 226/1/96 427/1/96 225/1/96
f 418/1/97 224/1/97 429/1/97
f 429/1/97 224/1/97 225/1/97
f 429/1/98 225/1/98 428/1/98
f 428/1/99 225/1/99 427/1/99
f 177/1/83 176/1/83 404/1/83
f 404/1/83 430/1/83 177/1/83
f 177/1/84 430/1/84 431/1/84
f 177/1/85 431/1/85 179/1/85
f 431/1/86 432/1/86 179/1/86
f 179/1/189 432/1/189 433/1/189
f 179/1/88 433/1/88 165/1/88
f 433/1/89 434/1/89 165/1/89
f 165/1/90 434/1/90 435/1/90
f 165/1/91 435/1/91 167/1/91
f 167/1/92 435/1/92 436/1/92
f 167/1/93 436/1/93 169/1/93
f 436/1/94 437/1/94 169/1/94
f 169/1/95 437/1/95 438/1/95
f 169/1/96 438/1/96 171/1/96
f 410/1/97 172/1/97 440/1/97
f 440/1/97 172/1/97 171/1/97
f 440/1/98 171/1/98 439/1/98
f 439/1/99 171/1/99 438/1/99
f 245/226/83 246/227/83 396/185/83
f 396/185/83 441/202/83 245/226/83
f 245/1/84 441/1/84 442/1/84
f 245/228/85 442/229/85 244/230/85
f 442/231/86 443/232/86 244/233/86
f 244/233/87 443/232/87 444/234/87
f 244/235/88 444/209/88 243/236/88
f 444/209/89 445/210/89 243/236/89
f 243/1/90 445/1/90 446/1/90
f 243/237/91 446/238/91 242/239/91
f 242/1/92 446/1/92 447/1/92
f 242/1/93 447/1/93 241/1/93
f 447/1/94 448/1/94 241/1/94
f 241/1/95 448/1/95 449/1/95
f 241/1/96 449/1/96 240/1/96
f 403/1/97 239/1/97 451/1/97
f 451/1/97 239/1/97 240/1/97
f 451/1/98 240/1/98 450/1/98
f 450/1/99 240/1/99 449/1/99
f 329/1/153 192/1/153 452/1/153
f 452/1/162 192/1/162 191/1/162
f 452/1/155 191/1/155 453/1/155
f 453/1/155 191/1/155 184/1/155
f 453/1/163 184/1/163 454/1/163
f 454/1/190 184/1/190 183/1/190
f 454/1/158 183/1/158 455/1/158
f 455/1/158 183/1/158 199/1/158
f 455/1/159 199/1/159 456/1/159
f 456/1/159 199/1/159 201/1/159
f 456/1/161 201/1/161 339/1/161
f 339/1/191 201/1/191 203/1/191
f 329/1/171 457/1/171 330/1/171
f 330/1/172 457/1/172 458/1/172
f 330/1/173 458/1/173 331/1/173
f 331/1/174 458/1/174 332/1/174
f 332/1/175 458/1/175 459/1/175
f 332/1/176 459/1/176 333/1/176
f 333/1/177 459/1/177 334/1/177
f 334/1/178 459/1/178 460/1/178
f 334/1/179 460/1/179 335/1/179
f 335/1/180 460/1/180 336/1/180
f 336/1/181 460/1/181 461/1/181
f 336/1/182 461/1/182 337/1/182
f 337/1/183 461/1/183 338/1/183
f 338/1/184 461/1/184 462/1/184
f 338/1/185 462/1/185 341/1/185
f 341/1/186 462/1/186 340/1/186
f 340/1/187 462/1/187 463/1/187
f 340/1/188 463/1/188 339/1/188
f 339/1/164 463/1/164 456/1/164
f 456/1/164 463/1/164 464/1/164
f 456/1/165 464/1/165 455/1/165
f 455/1/165 464/1/165 465/1/165
f 455/1/166 465/1/166 454/1/166
f 454/1/166 465/1/166 466/1/166
f 454/1/167 466/1/167 453/1/167
f 453/1/167 466/1/167 467/1/167
f 453/1/168 467/1/168 452/1/168
f 452/1/168 467/1/168 468/1/168
f 452/1/169 468/1/169 329/1/169
f 329/1/169 468/1/169 457/1/169
f 460/1/82 469/1/82 461/1/82
f 461/1/82 469/1/82 470/1/82
f 461/1/82 470/1/82 462/1/82
f 462/1/82 470/1/82 471/1/82
f 462/1/82 471/1/82 463/1/82
f 463/1/82 471/1/82 472/1/82
f 463/1/82 472/1/82 464/1/82
f 464/1/82 472/1/82 473/1/82
f 464/1/82 473/1/82 465/1/82
f 465/1/82 473/1/82 474/1/82
f 465/1/82 474/1/82 466/1/82
f 474/1/82 475/1/82 466/1/82
f 466/1/82 475/1/82 476/1/82
f 466/1/82 476/1/82 467/1/82
f 467/1/82 476/1/82 477/1/82
f 467/1/82 477/1/82 468/1/82
f 468/1/82 477/1/82 478/1/82
f 468/1/82 478/1/82 457/1/82
f 457/1/82 478/1/82 479/1/82
f 457/1/82 479/1/82 458/1/82
f 458/1/82 479/1/82 480/1/82
f 458/1/82 480/1/82 459/1/82
f 459/1/82 480/1/82 481/1/82
f 459/1/82 481/1/82 460/1/82
f 460/1/82 481/1/82 482/1/82
f 460/1/82 482/1/82 469/1/82
f 323/1/105 483/1/105 325/1/105
f 325/1/105 483/1/105 484/1/105
f 325/1/106 484/1/106 327/1/106
f 327/1/106 484/1/106 485/1/106
f 327/1/192 485/1/192 328/1/192
f 328/1/192 485/1/192 486/1/192
f 328/1/14 486/1/14 304/1/14
f 304/1/14 486/1/14 487/1/14
f 304/1/102 487/1/102 306/1/102
f 306/1/102 487/1/102 488/1/102
f 306/1/101 488/1/101 308/1/101
f 308/1/101 488/1/101 489/1/101
f 308/1/100 489/1/100 310/1/100
f 310/1/100 489/1/100 490/1/100
f 310/1/113 490/1/113 312/1/113
f 312/1/113 490/1/113 491/1/113
f 312/1/112 491/1/112 314/1/112
f 314/1/112 491/1/112 492/1/112
f 314/1/111 492/1/111 316/1/111
f 316/1/111 492/1/111 493/1/111
f 316/1/33 493/1/33 317/1/33
f 317/1/33 493/1/33 494/1/33
f 317/1/110 494/1/110 319/1/110
f 319/1/110 494/1/110 495/1/110
f 319/1/109 495/1/109 321/1/109
f 321/1/109 495/1/109 496/1/109
f 321/1/108 496/1/108 323/1/108
f 323/1/108 496/1/108 483/1/108
f 284/1/113 497/1/113 286/1/113
f 286/1/113 497/1/113 498/1/113
f 286/1/112 498/1/112 288/1/112
f 288/1/112 498/1/112 499/1/112
f 288/1/111 499/1/111 290/1/111
f 290/1/111 499/1/111 500/1/111
f 290/1/33 500/1/33 291/1/33
f 291/1/33 500/1/33 501/1/33
f 291/1/110 501/1/110 293/1/110
f 293/1/110 501/1/110 502/1/110
f 293/1/109 502/1/109 295/1/109
f 295/1/109 502/1/109 503/1/109
f 295/1/108 503/1/108 297/1/108
f 297/1/108 503/1/108 504/1/108
f 297/1/105 504/1/105 299/1/105
f 299/1/105 504/1/105 505/1/105
f 299/1/106 505/1/106 301/1/106
f 301/1/106 505/1/106 506/1/106
f 301/1/192 506/1/192 302/1/192
f 302/1/192 506/1/192 507/1/192
f 302/1/14 507/1/14 278/1/14
f 278/1/14 507/1/14 508/1/14
f 278/1/102 508/1/102 280/1/102
f 280/1/102 508/1/102 509/1/102
f 280/1/101 509/1/101 282/1/101
f 282/1/101 509/1/101 510/1/101
f 282/1/100 510/1/100 284/1/100
f 284/1/100 510/1/100 497/1/100
f 271/1/105 511/1/105 273/1/105
f 273/1/105 511/1/105 512/1/105
f 273/1/106 512/1/106 275/1/106
f 275/1/106 512/1/106 513/1/106
f 275/1/192 513/1/192 276/1/192
f 276/1/192 513/1/192 514/1/192
f 276/1/14 514/1/14 252/1/14
f 252/1/14 514/1/14 515/1/14
f 252/1/102 515/1/102 254/1/102
f 254/1/102 515/1/102 516/1/102
f 254/1/101 516/1/101 256/1/101
f 256/1/101 516/1/101 517/1/101
f 256/1/100 517/1/100 258/1/100
f 258/1/100 517/1/100 518/1/100
f 258/1/113 518/1/113 260/1/113
f 260/1/113 518/1/113 519/1/113
f 260/1/112 519/1/112 262/1/112
f 262/1/112 519/1/112 520/1/112
f 262/1/111 520/1/111 264/1/111
f 264/1/111 520/1/111 521/1/111
f 264/1/33 521/1/33 265/1/33
f 265/1/33 521/1/33 522/1/33
f 265/1/110 522/1/110 267/1/110
f 267/1/110 522/1/110 523/1/110
f 267/1/109 523/1/109 269/1/109
f 269/1/109 523/1/109 524/1/109
f 269/1/108 524/1/108 271/1/108
f 271/1/108 524/1/108 511/1/108
f 472/1/113 525/1/113 473/1/113
f 473/1/113 525/1/113 526/1/113
f 473/1/112 526/1/112 474/1/112
f 474/1/112 526/1/112 527/1/112
f 474/1/111 527/1/111 475/1/111
f 475/1/111 527/1/111 528/1/111
f 475/1/33 528/1/33 476/1/33
f 476/1/33 528/1/33 529/1/33
f 476/1/110 529/1/110 477/1/110
f 477/1/110 529/1/110 530/1/110
f 477/1/109 530/1/109 478/1/109
f 478/1/109 530/1/109 531/1/109
f 478/1/108 531/1/108 479/1/108
f 479/1/108 531/1/108 532/1/108
f 479/1/105 532/1/105 480/1/105
f 480/1/105 532/1/105 533/1/105
f 480/1/106 533/1/106 481/1/106
f 481/1/106 533/1/106 534/1/106
f 481/1/192 534/1/192 482/1/192
f 482/1/192 534/1/192 535/1/192
f 482/1/14 535/1/14 469/1/14
f 469/1/14 535/1/14 536/1/14
f 469/1/102 536/1/102 470/1/102
f 470/1/102 536/1/102 537/1/102
f 470/1/101 537/1/101 471/1/101
f 471/1/101 537/1/101 538/1/101
f 471/1/100 538/1/100 472/1/100
f 472/1/100 538/1/100 525/1/100
f 539/240/193 50/21/193 49/20/193
f 48/19/193 47/18/193 208/241/193
f 208/241/193 47/18/193 49/20/193
f 208/241/193 49/20/193 52/23/193
f 539/240/193 49/20/193 540/242/193
f 540/242/193 49/20/193 47/18/193
f 540/242/193 47/18/193 46/17/193
f 7/1/194 6/1/194 541/1/194
f 186/1/194 12/1/194 7/1/194
f 7/1/194 541/1/194 186/1/194
f 186/1/195 541/1/195 542/1/195
f 186/1/195 542/1/195 188/1/195
f 188/1/196 542/1/196 181/1/196
f 181/1/196 542/1/196 543/1/196
f 181/1/197 543/1/197 180/1/197
f 544/1/198 14/1/198 13/1/198
f 543/1/197 545/1/197 180/1/197
f 180/1/199 545/1/199 544/1/199
f 180/1/199 544/1/199 178/1/199
f 178/1/198 544/1/198 13/1/198
f 178/1/198 13/1/198 17/1/198
f 546/1/170 539/1/170 540/1/170
f 66/1/170 65/1/170 547/1/170
f 39/1/170 548/1/170 44/1/170
f 549/1/170 550/1/170 551/1/170
f 529/1/170 528/1/170 552/1/170
f 538/1/170 537/1/170 553/1/170
f 553/1/170 537/1/170 536/1/170
f 553/1/170 536/1/170 9/1/170
f 536/1/170 535/1/170 9/1/170
f 9/1/170 535/1/170 534/1/170
f 9/1/170 534/1/170 5/1/170
f 530/1/170 541/1/170 531/1/170
f 531/1/170 541/1/170 6/1/170
f 531/1/170 6/1/170 532/1/170
f 532/1/170 6/1/170 5/1/170
f 532/1/170 5/1/170 533/1/170
f 533/1/170 5/1/170 534/1/170
f 528/1/170 527/1/170 552/1/170
f 552/1/170 527/1/170 526/1/170
f 552/1/170 526/1/170 553/1/170
f 553/1/170 526/1/170 525/1/170
f 553/1/170 525/1/170 538/1/170
f 530/1/170 529/1/170 541/1/170
f 541/1/170 529/1/170 552/1/170
f 541/1/170 552/1/170 542/1/170
f 542/1/170 552/1/170 543/1/170
f 543/1/170 552/1/170 545/1/170
f 545/1/170 552/1/170 554/1/170
f 545/1/170 554/1/170 544/1/170
f 555/1/170 509/1/170 554/1/170
f 554/1/170 509/1/170 508/1/170
f 554/1/170 508/1/170 544/1/170
f 544/1/170 508/1/170 507/1/170
f 544/1/170 507/1/170 14/1/170
f 502/1/170 21/1/170 503/1/170
f 503/1/170 21/1/170 15/1/170
f 507/1/170 506/1/170 14/1/170
f 14/1/170 506/1/170 505/1/170
f 14/1/170 505/1/170 15/1/170
f 15/1/170 505/1/170 504/1/170
f 15/1/170 504/1/170 503/1/170
f 502/1/170 501/1/170 21/1/170
f 21/1/170 501/1/170 500/1/170
f 21/1/170 500/1/170 556/1/170
f 556/1/170 500/1/170 499/1/170
f 556/1/170 499/1/170 498/1/170
f 498/1/170 497/1/170 555/1/170
f 555/1/170 497/1/170 510/1/170
f 555/1/170 510/1/170 509/1/170
f 26/1/170 19/1/170 556/1/170
f 556/1/170 19/1/170 18/1/170
f 556/1/170 18/1/170 21/1/170
f 34/1/170 27/1/170 551/1/170
f 551/1/170 27/1/170 26/1/170
f 551/1/170 26/1/170 549/1/170
f 557/1/170 31/1/170 34/1/170
f 38/1/170 37/1/170 558/1/170
f 558/1/170 37/1/170 32/1/170
f 558/1/170 32/1/170 31/1/170
f 524/1/170 523/1/170 558/1/170
f 558/1/170 523/1/170 522/1/170
f 558/1/170 522/1/170 38/1/170
f 522/1/170 521/1/170 38/1/170
f 38/1/170 521/1/170 520/1/170
f 38/1/170 520/1/170 39/1/170
f 524/1/170 558/1/170 511/1/170
f 511/1/170 558/1/170 559/1/170
f 511/1/170 559/1/170 512/1/170
f 520/1/170 519/1/170 39/1/170
f 39/1/170 519/1/170 518/1/170
f 39/1/170 518/1/170 548/1/170
f 53/1/170 51/1/170 546/1/170
f 546/1/170 51/1/170 50/1/170
f 546/1/170 50/1/170 539/1/170
f 494/1/170 493/1/170 546/1/170
f 485/1/170 560/1/170 486/1/170
f 486/1/170 560/1/170 57/1/170
f 486/1/170 57/1/170 487/1/170
f 485/1/170 484/1/170 560/1/170
f 560/1/170 484/1/170 483/1/170
f 560/1/170 483/1/170 561/1/170
f 561/1/170 483/1/170 496/1/170
f 561/1/170 496/1/170 495/1/170
f 53/1/170 489/1/170 57/1/170
f 57/1/170 489/1/170 488/1/170
f 57/1/170 488/1/170 487/1/170
f 493/1/170 492/1/170 546/1/170
f 546/1/170 492/1/170 491/1/170
f 546/1/170 491/1/170 53/1/170
f 53/1/170 491/1/170 490/1/170
f 53/1/170 490/1/170 489/1/170
f 65/1/170 60/1/170 560/1/170
f 560/1/170 60/1/170 59/1/170
f 560/1/170 59/1/170 57/1/170
f 66/1/170 547/1/170 71/1/170
f 9/1/170 3/1/170 553/1/170
f 553/1/170 3/1/170 2/1/170
f 553/1/170 2/1/170 70/1/170
f 518/1/170 517/1/170 548/1/170
f 548/1/170 517/1/170 516/1/170
f 548/1/170 516/1/170 562/1/170
f 562/1/170 516/1/170 515/1/170
f 563/1/170 514/1/170 559/1/170
f 559/1/170 514/1/170 513/1/170
f 559/1/170 513/1/170 512/1/170
f 564/1/170 565/1/170 556/1/170
f 556/1/170 565/1/170 566/1/170
f 556/1/170 566/1/170 26/1/170
f 26/1/170 566/1/170 567/1/170
f 26/1/170 567/1/170 549/1/170
f 568/1/170 569/1/170 570/1/170
f 570/1/170 569/1/170 571/1/170
f 498/1/170 555/1/170 556/1/170
f 556/1/170 555/1/170 572/1/170
f 556/1/170 572/1/170 564/1/170
f 550/1/170 573/1/170 551/1/170
f 551/1/170 573/1/170 574/1/170
f 551/1/170 574/1/170 570/1/170
f 570/1/170 574/1/170 575/1/170
f 570/1/170 575/1/170 568/1/170
f 571/1/170 576/1/170 555/1/170
f 555/1/170 576/1/170 577/1/170
f 555/1/170 577/1/170 572/1/170
f 148/1/170 146/1/170 561/1/170
f 136/1/170 65/1/170 138/1/170
f 138/1/170 65/1/170 560/1/170
f 138/1/170 560/1/170 140/1/170
f 140/1/170 560/1/170 142/1/170
f 561/1/170 146/1/170 560/1/170
f 560/1/170 146/1/170 144/1/170
f 560/1/170 144/1/170 142/1/170
f 136/1/170 134/1/170 65/1/170
f 65/1/170 134/1/170 132/1/170
f 65/1/170 132/1/170 547/1/170
f 547/1/170 132/1/170 130/1/170
f 547/1/170 130/1/170 128/1/170
f 128/1/170 126/1/170 547/1/170
f 547/1/170 126/1/170 154/1/170
f 547/1/170 154/1/170 578/1/170
f 578/1/170 154/1/170 152/1/170
f 578/1/170 152/1/170 150/1/170
f 579/1/170 103/1/170 105/1/170
f 105/1/170 107/1/170 579/1/170
f 579/1/170 107/1/170 109/1/170
f 579/1/170 109/1/170 111/1/170
f 113/1/170 115/1/170 580/1/170
f 578/1/170 77/1/170 79/1/170
f 115/1/170 117/1/170 580/1/170
f 580/1/170 117/1/170 119/1/170
f 580/1/170 119/1/170 121/1/170
f 79/1/170 81/1/170 578/1/170
f 578/1/170 81/1/170 83/1/170
f 578/1/170 83/1/170 85/1/170
f 87/1/170 89/1/170 581/1/170
f 121/1/170 123/1/170 580/1/170
f 580/1/170 123/1/170 73/1/170
f 580/1/170 73/1/170 578/1/170
f 578/1/170 73/1/170 75/1/170
f 578/1/170 75/1/170 77/1/170
f 71/1/170 547/1/170 582/1/170
f 582/1/170 547/1/170 578/1/170
f 582/1/170 578/1/170 581/1/170
f 581/1/170 578/1/170 85/1/170
f 581/1/170 85/1/170 87/1/170
f 89/1/170 91/1/170 581/1/170
f 581/1/170 91/1/170 93/1/170
f 581/1/170 93/1/170 95/1/170
f 95/1/170 97/1/170 581/1/170
f 581/1/170 97/1/170 99/1/170
f 581/1/170 99/1/170 579/1/170
f 579/1/170 99/1/170 101/1/170
f 579/1/170 101/1/170 103/1/170
f 561/1/170 562/1/170 563/1/170
f 563/1/170 562/1/170 515/1/170
f 563/1/170 515/1/170 514/1/170
f 495/1/170 494/1/170 561/1/170
f 561/1/170 494/1/170 546/1/170
f 561/1/170 546/1/170 562/1/170
f 562/1/170 546/1/170 540/1/170
f 562/1/170 540/1/170 548/1/170
f 548/1/170 540/1/170 46/1/170
f 548/1/170 46/1/170 44/1/170
f 571/1/170 555/1/170 570/1/170
f 570/1/170 555/1/170 554/1/170
f 570/1/170 554/1/170 579/1/170
f 579/1/170 554/1/170 552/1/170
f 579/1/170 552/1/170 581/1/170
f 581/1/170 552/1/170 553/1/170
f 581/1/170 553/1/170 582/1/170
f 582/1/170 553/1/170 70/1/170
f 582/1/170 70/1/170 71/1/170
f 34/1/170 551/1/170 557/1/170
f 557/1/170 551/1/170 570/1/170
f 557/1/170 570/1/170 583/1/170
f 583/1/170 570/1/170 579/1/170
f 583/1/170 579/1/170 580/1/170
f 580/1/170 579/1/170 111/1/170
f 580/1/170 111/1/170 113/1/170
f 31/1/170 557/1/170 558/1/170
f 558/1/170 557/1/170 583/1/170
f 558/1/170 583/1/170 559/1/170
f 559/1/170 583/1/170 580/1/170
f 559/1/170 580/1/170 563/1/170
f 563/1/170 580/1/170 578/1/170
f 563/1/170 578/1/170 561/1/170
f 561/1/170 578/1/170 150/1/170
f 561/1/170 150/1/170 148/1/170
f 584/1/59 564/1/59 585/1/59
f 585/1/200 564/1/200 572/1/200
f 585/1/62 572/1/62 586/1/62
f 586/1/62 572/1/62 577/1/62
f 586/1/63 577/1/63 587/1/63
f 587/1/63 577/1/63 576/1/63
f 587/1/64 576/1/64 588/1/64
f 588/1/64 576/1/64 571/1/64
f 588/1/65 571/1/65 589/1/65
f 589/1/65 571/1/65 569/1/65
f 589/1/66 569/1/66 590/1/66
f 590/1/67 569/1/67 568/1/67
f 590/1/69 568/1/69 591/1/69
f 591/1/69 568/1/69 575/1/69
f 591/1/70 575/1/70 592/1/70
f 592/1/70 575/1/70 574/1/70
f 592/1/72 574/1/72 593/1/72
f 593/1/201 574/1/201 573/1/201
f 593/1/73 573/1/73 594/1/73
f 594/1/73 573/1/73 550/1/73
f 594/1/74 550/1/74 595/1/74
f 595/1/75 550/1/75 549/1/75
f 595/1/76 549/1/76 596/1/76
f 596/1/76 549/1/76 567/1/76
f 596/1/77 567/1/77 597/1/77
f 597/1/78 567/1/78 566/1/78
f 597/1/80 566/1/80 598/1/80
f 598/1/79 566/1/79 565/1/79
f 598/1/202 565/1/202 584/1/202
f 584/1/81 565/1/81 564/1/81
f 592/1/100 599/1/100 591/1/100
f 591/1/100 599/1/100 600/1/100
f 591/1/101 600/1/101 590/1/101
f 590/1/101 600/1/101 601/1/101
f 590/1/102 601/1/102 589/1/102
f 589/1/102 601/1/102 602/1/102
f 589/1/14 602/1/14 588/1/14
f 588/1/14 602/1/14 603/1/14
f 588/1/103 603/1/103 587/1/103
f 587/1/104 603/1/104 604/1/104
f 605/1/105 584/1/105 606/1/105
f 606/1/105 584/1/105 607/1/105
f 606/1/106 607/1/106 604/1/106
f 604/1/106 607/1/106 608/1/106
f 604/1/107 608/1/107 587/1/107
f 584/1/108 605/1/108 598/1/108
f 598/1/108 605/1/108 609/1/108
f 598/1/109 609/1/109 597/1/109
f 597/1/109 609/1/109 610/1/109
f 597/1/110 610/1/110 596/1/110
f 596/1/110 610/1/110 611/1/110
f 596/1/33 611/1/33 595/1/33
f 595/1/33 611/1/33 612/1/33
f 595/1/111 612/1/111 594/1/111
f 594/1/111 612/1/111 613/1/111
f 594/1/112 613/1/112 593/1/112
f 593/1/112 613/1/112 614/1/112
f 593/1/113 614/1/113 592/1/113
f 592/1/113 614/1/113 599/1/113
f 609/1/170 599/1/170 614/1/170
f 604/1/170 603/1/170 606/1/170
f 606/1/170 603/1/170 602/1/170
f 609/1/170 605/1/170 599/1/170
f 599/1/170 605/1/170 606/1/170
f 599/1/170 606/1/170 600/1/170
f 600/1/170 606/1/170 602/1/170
f 600/1/170 602/1/170 601/1/170
f 611/1/170 610/1/170 612/1/170
f 612/1/170 610/1/170 609/1/170
f 612/1/170 609/1/170 613/1/170
f 613/1/170 609/1/170 614/1/170
